<?xml version="1.0" encoding="UTF-8" standalone="no"?>
<svg
   xmlns:dc="http://purl.org/dc/elements/1.1/"
   xmlns:cc="http://creativecommons.org/ns#"
   xmlns:rdf="http://www.w3.org/1999/02/22-rdf-syntax-ns#"
   xmlns:svg="http://www.w3.org/2000/svg"
   xmlns="http://www.w3.org/2000/svg"
   xmlns:sodipodi="http://sodipodi.sourceforge.net/DTD/sodipodi-0.dtd"
   xmlns:inkscape="http://www.inkscape.org/namespaces/inkscape"
   version="1.1"
   id="svg833"
   width="606.80603"
   height="496.88596"
   viewBox="0 0 606.80603 496.88596"
   sodipodi:docname="achtergrond.svg"
   inkscape:version="1.0.1 (3bc2e813f5, 2020-09-07)">
  <metadata
     id="metadata839">
    <rdf:RDF>
      <cc:Work
         rdf:about="">
        <dc:format>image/svg+xml</dc:format>
        <dc:type
           rdf:resource="http://purl.org/dc/dcmitype/StillImage" />
        <dc:title></dc:title>
      </cc:Work>
    </rdf:RDF>
  </metadata>
  <defs
     id="defs837">
    <clipPath
       clipPathUnits="userSpaceOnUse"
       id="clipPath862">
      <path
         style="fill:none;stroke:#000000;stroke-width:1px;stroke-linecap:butt;stroke-linejoin:miter;stroke-opacity:1"
         d="m 89.251701,271.02041 96.870749,-42.44898 94.69388,-30.47619 81.63265,-10.88436 81.63265,-6.53061 64.21769,-1.08843 70.7483,9.79592 90.34014,15.23809 37.0068,13.06122 67.48299,-13.06122 35.91837,136.05442 2.17687,175.2381 c 0,0 -16.32653,56.59864 -25.03401,60.95238 -8.70749,4.35374 -115.37415,59.86394 -115.37415,59.86394 l -142.58504,27.21089 -329.79592,48.97959 z"
         id="path864" />
    </clipPath>
  </defs>
  <sodipodi:namedview
     pagecolor="#ffffff"
     bordercolor="#666666"
     borderopacity="1"
     objecttolerance="10"
     gridtolerance="10"
     guidetolerance="10"
     inkscape:pageopacity="0"
     inkscape:pageshadow="2"
     inkscape:window-width="1920"
     inkscape:window-height="1017"
     id="namedview835"
     showgrid="false"
     fit-margin-top="0"
     fit-margin-left="0"
     fit-margin-right="0"
     fit-margin-bottom="0"
     inkscape:zoom="0.91875"
     inkscape:cx="291.47695"
     inkscape:cy="214.7249"
     inkscape:window-x="-8"
     inkscape:window-y="-8"
     inkscape:window-maximized="1"
     inkscape:current-layer="g841" />
  <g
     inkscape:groupmode="layer"
     inkscape:label="Image"
     id="g841"
     transform="translate(-135.12169,-185.2751)">
    <path
       id="path866"
       style="fill:#000000"
       d="m 458.33789,185.2793 c -0.15512,-0.0101 -0.2825,-0.002 -0.37891,0.0234 -1.11702,0.29211 -2.03125,0.69839 -2.03125,0.90235 0,0.73099 7.8869,5.3254 18.59961,10.83789 5.99567,3.08521 12.46835,6.4986 14.38477,7.58398 4.2644,2.41519 7.28775,2.58502 6.83984,0.38477 -0.53296,-2.61814 -32.6053,-19.41846 -37.41406,-19.73242 z m -49.50586,11.42187 c -0.63369,0.0417 -0.9043,0.26664 -0.9043,0.64649 0,1.83848 2.34218,2.92325 22,10.19726 21.37794,7.91051 36.39771,13.6221 39.5,15.01953 3.27138,1.47361 5.5,1.18394 5.5,-0.71484 0,-1.37728 -6.38377,-4.16375 -29.90625,-13.04883 -23.88117,-9.02057 -33.44347,-12.2804 -36.18945,-12.09961 z m 133.84375,6.18945 c -11.06131,-0.26456 -25.06608,4.30609 -38.24805,12.55079 -2.2,1.376 -6.54431,3.80431 -9.65429,5.39648 -6.1445,3.14571 -24.06145,19.64821 -28.37696,26.13672 -1.41717,2.13077 -4.21325,8.65577 -6.21484,14.5 l -3.64062,10.625 -0.36719,25.75 -0.36914,25.75 h -4.28907 c -8.65018,0 -12.53467,3.0703 -13.96289,11.0332 -0.34844,1.94271 -0.85026,11.39271 -1.11523,21 -0.64011,23.2093 -0.64496,23.19608 15.24609,42.14063 5.57535,6.64665 8.03356,8.82763 10.51172,9.32617 6.72706,1.35328 6.73242,1.35914 6.73242,6.09961 v 4.46484 l -10.75,-0.66601 c -5.9125,-0.36617 -11.28867,-1.09212 -11.94921,-1.61328 -0.66054,-0.52116 -1.49827,-3.04966 -1.86133,-5.61719 -1.0708,-7.57248 -3.07227,-15.60885 -4.42774,-17.7793 -3.66211,-5.86398 -12.71197,-9.09169 -28.11718,-10.02734 l -10.85743,-0.66016 0.60938,-2.59961 c 0.33484,-1.43043 1.71181,-5.75156 3.06055,-9.60156 1.34874,-3.85 3.33134,-9.925 4.40429,-13.5 3.64478,-12.14414 4.52645,-14.36822 5.95899,-15.02734 13.07926,-6.01788 14.80285,-8.04367 12.96093,-15.23047 l -1.27539,-4.97657 4.14453,-3.63281 c 4.02741,-3.52947 4.16361,-3.85186 4.76563,-11.33203 0.67551,-8.39329 -0.53545,-13.12535 -3.80469,-14.875 -1.66079,-0.88882 -1.79627,-1.83909 -1.24414,-8.71094 1.24044,-15.43864 0.97709,-18.51314 -2.11523,-24.625 -5.22647,-10.32993 -23.7684,-22.51966 -34.33399,-22.57226 -1.83281,-0.009 -6.547,-1.42765 -10.47656,-3.15235 -4.42776,-1.94336 -9.96443,-3.45158 -14.55859,-3.96679 -7.36671,-0.82614 -14.1094,-3.94249 -14.125,-6.52735 -0.012,-1.98508 -11.29048,-9.73057 -16.9961,-11.67187 -7.95671,-2.70722 -21.16448,-3.3381 -27.89453,-1.33203 -5.42646,1.6175 -6.91593,1.53408 -15.11719,-0.85352 -2.475,-0.72053 -9.675,-1.84308 -16,-2.49414 -16.39838,-1.68795 -28.05206,0.0778 -41.91992,6.34961 -13.152,5.94806 -18.1995,9.49633 -23.84765,16.76953 -5.40379,6.95854 -8.42676,8.99591 -18.94141,12.77149 -14.49372,5.20438 -20.60063,8.52919 -25.32227,13.7832 -7.46314,8.30461 -10.16762,12.86069 -10.70507,18.03515 -0.40792,3.92738 -1.26044,5.5685 -4.81836,9.27149 -3.09074,3.21676 -4.94292,6.40034 -6.4961,11.16406 -2.12491,6.51725 -2.1375,6.8736 -0.56054,16.125 1.95593,11.47467 2.00523,14.17405 0.29492,15.89063 -3.71248,3.72611 -4.67881,6.62717 -4.82813,14.48437 -0.18189,9.57108 1.2955,12.76892 7.80078,16.88086 2.38914,1.51017 4.34375,3.07746 4.34375,3.48242 0,0.40497 -1.54757,1.91637 -3.43945,3.35938 -2.00146,1.52659 -4.78301,5.35325 -6.65234,9.15039 l -3.21289,6.52539 0.65625,12.94141 c 0.62268,12.30311 0.53427,13.20185 -1.76953,18.21875 -1.33287,2.90254 -2.97913,7.86435 -3.66016,11.02539 -1.9423,9.01534 -0.46258,12.3864 10.17969,23.18164 4.89493,4.96529 8.89843,9.63899 8.89843,10.38672 0,0.74772 -1.575,4.17495 -3.5,7.61718 -4.74183,8.47918 -4.90043,15.33406 -0.49609,21.41407 3.17063,4.37693 8.97337,9.03876 15.30078,12.29296 3.73932,1.92314 10.28222,6.43805 16.19531,11.17579 1.65,1.32202 4.4625,3.15403 6.25,4.07031 2.95549,1.515 3.25,2.08274 3.25,6.27344 0,7.75743 1.96362,12.38941 7.60352,17.9414 4.39275,4.32427 6.21449,5.36123 11.96094,6.80469 5.99174,1.50508 26.52807,9.02061 31.93554,11.6875 2.00901,0.99082 6.68997,10.44704 12.57422,25.40625 8.03574,20.42882 19.17434,53.41032 18.57032,54.98437 -0.25059,0.65304 -5.63031,1.61272 -12.86915,2.29493 -19.18546,1.80811 -30.38244,4.79207 -38.21874,10.18359 -4.54041,3.12389 -5.90223,5.53218 -5.76954,10.19922 0.36012,12.66569 19.79808,21.34974 55.71289,24.88867 11.02578,1.08644 61.65114,0.3025 69,-1.06836 18.10152,-3.37667 21.38626,-4.20832 26.98047,-6.82617 3.36286,-1.57367 7.78191,-4.3233 9.81836,-6.11133 3.38028,-2.96793 3.70117,-3.70514 3.70117,-8.46094 0,-6.81717 -2.53216,-9.28401 -14.5039,-14.125 -9.06981,-3.66755 -29.01946,-8.42494 -35.4961,-8.46484 -1.925,-0.0119 -4.53528,-0.29776 -5.80078,-0.63672 -2.73037,-0.73132 -2.60189,-1.75647 2.02735,-16.35742 1.65659,-5.225 3.16871,-10.0625 3.36132,-10.75 0.55036,-1.96429 1.70331,-1.54669 8.6875,3.13672 10.4196,6.9871 22.62156,17.22118 26.82618,22.50195 6.86676,8.6243 19.42062,11.48759 30.02539,6.84766 1.85614,-0.81213 5.39804,-2.01134 7.87304,-2.66602 2.475,-0.65468 6.79155,-1.88703 9.5918,-2.73828 4.99691,-1.51901 5.19409,-1.49935 10.60156,1.14844 3.03034,1.4838 7.71379,4.44463 10.40821,6.57812 2.69442,2.13349 7.59843,5.80528 10.89843,8.16016 5.78516,4.1278 6.25065,4.27614 13,4.12305 7.7904,-0.1767 22.58313,-3.68536 35.5,-8.41993 4.675,-1.71358 15.25,-5.15402 23.5,-7.64453 8.25,-2.49052 18.0278,-6.04624 21.72657,-7.90234 7.78555,-3.90691 10.69434,-4.12328 18.51367,-1.375 9.03458,3.1754 17.41302,2.73439 26.38672,-1.38867 6.8656,-3.15453 14.58631,-7.96665 21.47851,-13.38672 1.5919,-1.25191 4.3052,-3.27691 6.0293,-4.5 1.7242,-1.2231 6.69949,-4.98919 11.05469,-8.36914 17.254,-13.39005 27.93627,-18.38525 35.07617,-16.40235 7.6737,2.13114 13.42498,0.84015 17.73828,-3.98046 1.0987,-1.22793 6.72109,-6.09834 12.49609,-10.82422 16.5984,-13.58301 23,-19.39671 23,-20.88477 0,-0.75982 0.4219,-1.11946 0.9375,-0.80078 1.5824,0.97794 11.34939,-7.71299 15.30079,-13.61523 4.5692,-6.82496 7.21414,-16.34679 6.27734,-22.59375 -0.5792,-3.86253 -1.64196,-5.4159 -7.78906,-11.38282 -3.9152,-3.80044 -9.16738,-8.10124 -11.67188,-9.55664 -4.4987,-2.61421 -11.08459,-7.21753 -12.05469,-8.42578 -0.9831,-1.22448 -11.61073,-7.67393 -17.71093,-10.74805 -7.4314,-3.74489 -18.56476,-10.92769 -27.00196,-17.41992 -5.0717,-3.90264 -6.50785,-5.69887 -8.21875,-10.27148 -1.1404,-3.04799 -2.94943,-7.25795 -4.01953,-9.35547 l -1.94531,-3.8125 5.77344,-11.39063 c 5.1993,-10.25802 6.2228,-11.6391 10.3125,-13.89062 2.4976,-1.375 5.64408,-3.4 6.99219,-4.5 3.59989,-2.9376 9.84521,-11.378 12.00781,-16.22852 2.1342,-4.78677 5.82,-21.08396 5.1582,-22.80859 -0.2392,-0.62333 0.30629,-3.31804 1.21289,-5.98828 2.0807,-6.1286 2.23292,-10.81537 0.41992,-13 -1.1112,-1.33884 -2.43436,-1.58043 -6.19726,-1.13477 -2.6308,0.31158 -4.77539,0.24986 -4.77539,-0.13672 0.003,-0.38659 1.30618,-5.65312 2.89648,-11.70312 1.5904,-6.05 3.19265,-13.7 3.56055,-17 0.3679,-3.3 1.3673,-9.6 2.2207,-14 2.8043,-14.45865 2.35925,-18.62531 -3.18555,-29.8125 -2.6747,-5.39665 -5.68164,-10.24997 -6.68164,-10.78516 -1,-0.53519 -1.81836,-1.64112 -1.81836,-2.45898 0,-0.81786 -1.78705,-5.04386 -3.97265,-9.39063 -2.8575,-5.6834 -6.20668,-10.19739 -11.92578,-16.07226 l -7.95313,-8.16992 -12.50781,-4.28125 c -6.8792,-2.35492 -14.53141,-4.58431 -17.00391,-4.95508 -2.4724,-0.37076 -5.60187,-1.545 -6.95507,-2.60938 -1.35311,-1.06438 -4.87222,-3.16811 -7.82032,-4.67383 -5.2351,-2.67384 -5.92113,-2.75632 -29.36133,-3.52734 -13.19999,-0.43418 -26.96093,-1.0429 -30.58007,-1.35351 -0.71015,-0.0609 -1.43446,-0.10151 -2.17188,-0.11915 z m 3.92188,3.8379 c 7.96908,-0.10449 13.71004,1.67011 19.86328,5.98046 3.08216,2.15906 6.0501,3.64971 6.5957,3.3125 0.5456,-0.3372 2.26035,-0.0874 3.81055,0.55469 2.1494,0.89007 3.85181,0.88852 7.16601,-0.004 4.0408,-1.08809 4.21166,-1.26755 2.44336,-2.56055 -3.6073,-2.63772 -0.68484,-2.58592 4.62696,0.082 8.036,4.03626 22.82617,17.06356 22.82617,20.10547 0,3.1928 -3.95246,1.14626 -7.91016,-4.0957 -2.2824,-3.02302 -5.2489,-6.2158 -6.5918,-7.09571 -3.261,-2.13672 -12.52601,-2.11152 -13.72851,0.0371 -0.5981,1.06884 -2.36428,1.55469 -5.64258,1.55469 -3.7448,0 -5.61682,-0.63843 -8.69922,-2.9707 -5.97194,-4.51856 -7.43584,-3.63219 -2.42773,1.4707 5.86009,5.97101 3.9833,5.6846 -3.4961,-0.53516 -3.30584,-2.74909 -6.1678,-4.47708 -6.37695,-3.84961 -0.20866,0.62596 1.13958,2.31875 2.99609,3.76172 6.3455,4.93201 9.04102,7.90337 7.8418,8.64453 -0.62877,0.3886 -2.55625,-0.61938 -4.30273,-2.25 -7.11072,-6.63906 -14.29344,-9.76197 -8.66016,-3.76562 2.95388,3.14426 0.61841,3.42629 -2.68359,0.32422 -2.50962,-2.35767 -4.39972,-1.83552 -2.33985,0.64648 1.93655,2.3334 -0.19714,1.81345 -3.96289,-0.96484 -3.81501,-2.81462 -5.25571,-2.53887 -2.52148,0.48242 2.44061,2.69645 0.15188,2.69768 -4.26953,0.002 -3.73251,-2.27571 -6.3819,-2.75104 -4.42578,-0.79492 1.77681,1.77681 1.45615,3.11823 -0.54883,2.29297 -2.83474,-1.16679 -9.69788,-1.35038 -10.37305,-0.27734 -0.40074,0.6369 -1.41216,0.56863 -2.83594,-0.19336 -2.74442,-1.46876 -3.7856,-0.62402 -1.95312,1.58398 1.24357,1.49841 1.0687,1.58604 -1.85742,0.94336 -2.17511,-0.47773 -3.23047,-0.3347 -3.23047,0.4375 0,0.66274 -0.78521,0.89757 -1.85938,0.55664 -1.60804,-0.51037 -5.17518,1.95832 -4.0332,2.79102 4.19726,3.06052 11.14926,6.74451 12.11719,6.42187 0.80222,-0.26741 0.44242,-0.86453 -0.97852,-1.625 -1.23604,-0.66151 -2.24609,-1.65312 -2.24609,-2.20312 0,-0.65453 0.66758,-0.64242 1.93359,0.0351 2.86854,1.53518 4.95983,1.27162 2.81641,-0.35547 -2.35652,-1.78885 -2.22876,-2.93558 0.18359,-1.64453 2.78877,1.4925 4.82041,1.39072 3.26563,-0.16406 -0.66,-0.66 -1.19922,-1.46833 -1.19922,-1.79687 0,-0.70697 12.50434,-0.32875 15.75,0.47656 1.59088,0.39472 2.25,0.11312 2.25,-0.96094 0,-1.71371 1.56132,-2.03835 2.5,-0.51953 0.84026,1.35957 4.5,1.27408 4.5,-0.10547 0,-0.68118 0.67315,-0.81208 1.75,-0.33789 1.67777,0.73882 4.01526,1.04675 10.00781,1.31836 2.32159,0.10523 3.01281,0.83689 4.375,4.625 0.89001,2.475 1.40592,4.5 1.14648,4.5 -0.25943,0 -1.80452,-0.94938 -3.43359,-2.10938 -2.97993,-2.12191 -5.2345,-1.87902 -3.0293,0.32618 2.41623,2.41623 1.05841,2.7609 -2.90625,0.73828 l -4.08789,-2.08594 0.65625,2.06641 c 0.72549,2.28579 -0.42284,2.72168 -2.27929,0.86523 -0.93333,-0.93333 -1.19922,-0.82222 -1.19922,0.5 0,2.08856 -2.32269,2.22327 -3.97657,0.23047 -0.6942,-0.83647 -2.79244,-1.43718 -4.87109,-1.39258 -2.00892,0.0431 -5.00234,-0.22871 -6.65234,-0.60351 -2.25494,-0.51221 -1.26152,0.46732 4,3.94335 3.85,2.54352 8.42225,6.0022 10.16211,7.68555 4.20592,4.06932 6.45638,3.32131 2.86132,-0.95117 -3.40574,-4.0475 -1.69266,-4.17705 2.82227,-0.21289 3.86644,3.39478 4.6543,3.64653 4.6543,1.48242 0,-1.12098 0.65514,-1.35562 2.5,-0.89258 3.39087,0.85105 3.14705,-0.73313 -0.5293,-3.45117 -1.66529,-1.2312 -2.75704,-2.6769 -2.42578,-3.21289 0.33432,-0.54093 2.30184,0.36973 4.42187,2.04883 4.47494,3.54421 5.45644,3.75667 4.74219,1.02539 -0.59811,-2.28719 -0.32468,-2.39922 2.35547,-0.96484 2.5954,1.38913 2.56339,-0.41853 -0.0664,-3.76172 -3.16488,-4.0235 -2.33102,-4.77152 1.53516,-1.37696 5.2791,4.63509 6.9898,3.89728 2.6582,-1.14648 -0.8266,-0.9625 -1.0386,-1.75 -0.4707,-1.75 0.5679,0 1.61623,0.70278 2.32813,1.56055 1.4594,1.75853 9.05444,1.62956 9.65234,-0.16407 0.1931,-0.57935 -1.51653,-3.17671 -3.79883,-5.76953 -2.2823,-2.59283 -3.92795,-4.93533 -3.65625,-5.20703 1.5891,-1.58919 14.15831,7.13191 15.25391,10.58399 0.9039,2.84778 14.12189,22.26117 20.93359,30.74609 5.3929,6.71753 8.5398,8.71809 10,6.35547 0.6334,-1.02489 -5.80332,-11.07453 -12.13672,-18.94727 -2.3635,-2.93792 -4.29883,-5.75042 -4.29883,-6.25 0,-1.40055 3.39445,-1.07497 5.56055,0.53321 1.0676,0.79266 2.89605,1.20875 4.06445,0.92382 1.8119,-0.44187 2.22444,0.0445 2.80274,3.3086 0.7309,4.1249 6.92821,17.71482 9.38281,20.57617 2.1741,2.5344 2.88727,2.19925 4.26367,-2 0.676,-2.0625 1.78319,-4.65 2.45899,-5.75 0.6758,-1.1 1.493,-4.09573 1.8164,-6.6582 0.3235,-2.56246 1.69313,-6.28931 3.04493,-8.28125 1.3518,-1.99195 3.2664,-6.75676 4.2539,-10.58985 2.6619,-10.33352 4.62837,-9.13505 3.29297,2.00781 -0.427,3.56307 -0.58386,6.79171 -0.34766,7.17383 0.2361,0.38211 1.75139,0.98496 3.36719,1.33985 3.5359,0.77662 3.68402,0.24869 -4.89258,17.45312 -3.3373,6.69457 -6.06836,12.37047 -6.06836,12.61328 0,0.24282 2.3625,0.43183 5.25,0.41992 l 5.25,-0.0215 5,-10.61523 c 6.2116,-13.18699 6.19855,-13.14925 4.08985,-11.40821 -0.9546,0.78819 -2.99571,4.21368 -4.53711,7.61328 -2.3095,5.09346 -5.05274,8.97011 -5.05274,7.14063 0,-2.963 10.78681,-21.93831 12.03321,-21.16797 0.501,0.30966 1.83022,2.64125 2.95312,5.17969 1.9479,4.40364 1.96102,4.70354 0.29102,6.54883 -0.9626,1.0637 -3.88304,5.83117 -6.49024,10.59375 -2.6072,4.76258 -4.74414,7.9832 -4.74414,7.1582 -0.002,-0.825 2.24258,-5.73148 4.98828,-10.9043 4.4392,-8.36289 5.6692,-12.23614 3.0254,-9.52929 -0.92261,0.94453 -12.05665,23.00871 -12.05665,23.89257 0,0.26334 0.74861,0.19231 1.66211,-0.1582 1.3172,-0.50545 1.54335,-0.18997 1.09375,1.5293 -0.3117,1.19222 -0.16051,2.4205 0.33789,2.72851 1.366,0.84426 1.08765,4.44144 -0.34375,4.44141 -0.6875,-2e-5 -2.50511,-1.57502 -4.04101,-3.5 -1.536,-1.92498 -3.15666,-3.5 -3.60156,-3.5 -0.4449,0 -1.59138,2.88815 -2.54688,6.41797 -0.9554,3.52981 -3.49724,9.43015 -5.64844,13.11133 -2.1511,3.68117 -3.91211,7.09302 -3.91211,7.58203 0,0.48901 1.12947,0.88867 2.50977,0.88867 1.9967,0 2.9677,-0.94744 4.75,-4.63672 1.2322,-2.55039 2.69023,-4.6879 3.24023,-4.75 1.3642,-0.15403 1.87069,8.2755 0.65039,10.82813 -1.74449,3.64914 -3.29072,8.95655 -3.79882,13.04296 -0.2725,2.19159 -0.96743,4.55414 -1.54492,5.25 -0.79301,0.95554 -0.16867,1.63439 2.55273,2.77149 l 3.60351,1.50586 -1.99804,3.83398 -2,3.83399 -6.52149,-1.22461 c -4.1653,-0.78275 -7.86302,-0.91368 -10.23242,-0.36328 -2.0406,0.47402 -6.24058,0.87166 -9.33398,0.88476 -3.0933,0.0131 -7.53866,0.69844 -9.87696,1.52344 -2.3383,0.825 -6.7122,1.5 -9.7207,1.5 -7.07,0 -10.32728,1.98987 -13.08008,7.99023 -1.7328,3.7773 -2.20084,6.67256 -2.21484,13.65235 -0.01,4.87202 -0.67692,12.87987 -1.48242,17.79492 -1.6809,10.25648 -1.12454,16.82624 1.38476,16.35156 1.9719,-0.37303 2.6951,-5.8339 1.1543,-8.71289 -1.726,-3.22503 1.19372,-14.43103 6.13672,-23.55664 l 4.32226,-7.98242 4.23829,0.30664 c 3.7038,0.26854 4.38086,-0.01 5.38476,-2.21289 1.7471,-3.83444 3.47027,-3.85301 6.35547,-0.0703 2.109,2.76507 3.31115,3.43945 6.12305,3.43945 3.7468,0 9.39843,-2.42066 9.39843,-4.02539 0,-0.53588 0.78354,-0.97461 1.74024,-0.97461 1.9861,0 10.24781,3.2359 10.25781,4.01562 0.002,0.28341 -2.26029,1.31869 -5.02539,2.30079 -4.7389,1.68311 -5.89681,3.66541 -2.16211,3.69921 1.3503,0.0122 1.4129,0.19168 0.3125,0.88868 -0.7581,0.48009 -1.07613,1.36187 -0.70703,1.95898 0.4528,0.73272 3.31876,0.11843 8.81836,-1.88867 4.4817,-1.63562 9.1093,-2.97461 10.2832,-2.97461 2.4198,0 6.48242,3.85634 6.48242,6.15234 0,0.83728 -2.7014,6.43328 -6.0039,12.43555 -3.3025,6.00227 -6.71403,13.29325 -7.58203,16.20312 -1.0333,3.46372 -3.39454,7.43487 -6.83594,11.5 -6.2387,7.36936 -7.04669,8.80241 -10.17969,18.01368 -1.3195,3.87937 -3.96932,9.33564 -5.88672,12.125 -1.9173,2.78936 -5.06785,9.77764 -7.00195,15.52929 -1.9341,5.75165 -4.9565,12.83377 -6.7168,15.73829 -4.68,7.7219 -20.68269,22.16449 -26.49609,23.91406 -2.9502,0.88787 -9.15515,1.36546 -17.20508,1.32226 -20.9696,-0.11241 -25.27587,-2.04213 -42.1543,-18.89062 -18.30191,-18.26944 -26.70526,-27.70623 -31.20703,-35.04297 -2.19359,-3.575 -5.2929,-8.15617 -6.88867,-10.18164 -1.59576,-2.02546 -3.80424,-6.30046 -4.90625,-9.5 -2.58455,-7.50393 -5.62083,-25.15939 -6.46094,-37.56641 -0.88751,-13.10687 -2.7956,-14.17723 -2.32617,-1.30468 0.30844,8.45795 0.12666,9.8189 -1.41797,10.68359 -3.66382,2.05101 -7.0796,-0.54218 -17.42382,-13.23047 -10.98779,-13.4777 -10.50141,-11.79193 -10.12891,-35.10742 0.27539,-17.23696 0.59368,-20.78837 2.12109,-23.58594 3.5639,-6.52755 9.35911,-6.69174 15.27344,-0.43164 3.10115,3.28247 7.08222,10.29231 8.78906,15.47461 0.70448,2.13894 2.64063,2.32221 2.64063,0.25 0,-1.76385 1.15661,-1.94179 2.68554,-0.41211 0.70743,0.70738 1.30258,0.73992 1.70313,0.0918 0.33856,-0.54779 -0.79118,-2.18117 -2.51172,-3.62891 -1.72053,-1.44773 -2.84623,-2.91549 -2.5,-3.26172 0.34624,-0.34623 1.67063,0.34718 2.94141,1.54102 2.18629,2.05391 4.68164,2.88773 4.68164,1.56445 0,-0.33334 -1.125,-1.49069 -2.5,-2.57226 -2.90779,-2.28728 -3.08535,-3.78988 -0.9375,-7.94336 1.17823,-2.27845 1.28336,-3.35656 0.43164,-4.38282 -0.88079,-1.06128 -0.56375,-1.7317 1.4375,-3.04297 1.41181,-0.92505 2.56836,-2.15734 2.56836,-2.73828 0,-0.58094 0.75378,-1.88939 1.67578,-2.9082 2.11251,-2.3343 1.71136,-2.72712 -8.21289,-8.04492 l -7.96289,-4.26758 -1.09375,-8.99609 c -0.60141,-4.94811 -1.43012,-10.20516 -1.8418,-11.68164 -0.53238,-1.90937 0.30538,-6.09614 2.9043,-14.5 7.24633,-23.43168 8.18243,-24.85155 26.67187,-40.49024 3.73894,-3.16246 8.10951,-5.93081 10,-6.33203 1.84701,-0.392 4.70938,-1.72357 6.35938,-2.95898 8.32755,-6.23514 27.9472,-13.47482 38.60937,-14.24805 1.23709,-0.0897 2.42016,-0.14328 3.5586,-0.1582 z m -283.41016,3.51953 c 2.42886,-0.0249 5.45266,0.012 9.46094,0.0644 17.97379,0.23512 23.9529,1.49522 38.07812,8.02148 4.06396,1.87766 7.60344,3.1993 7.86524,2.9375 1.1193,-1.11929 -2.43409,-4.76823 -6.14258,-6.30664 -3.89051,-1.61393 -3.94113,-1.69086 -1.52149,-2.41601 5.70129,-1.70865 15.82051,-0.99887 22.72852,1.59375 9.14895,3.43366 13.66193,6.52805 20.83984,14.29101 6.06255,6.55669 6.06782,6.55996 9.25391,5.24024 4.96853,-2.05804 13.25283,-0.95556 18.36914,2.44531 2.52215,1.6765 6.41696,3.15593 9.38867,3.56445 12.10378,1.66394 26.67167,11.60797 31.44141,21.46094 2.26101,4.67061 2.87805,14.24057 1.52539,23.68164 -0.76201,5.31862 -0.62855,5.97697 1.88281,9.26953 5.54593,7.27109 4.01291,16.9043 -3.41992,21.49805 -4.27122,2.63975 -4.83285,4.33197 -2.47656,7.44727 1.8722,2.47526 1.89657,7.95774 0.043,9.49609 -0.88377,0.73346 -2.76472,0.93118 -4.95899,0.51953 -2.74774,-0.51548 -4.12567,-0.20009 -6.17773,1.41406 -2.34335,1.84328 -2.93851,1.92641 -5.28907,0.74414 -1.45692,-0.73279 -4.36579,-1.59824 -6.46289,-1.92187 -3.22803,-0.49815 -4.67905,-0.0329 -9.46289,3.02734 -9.28698,5.94081 -18.75541,5.58559 -25.13867,-0.94336 -3.90028,-3.98931 -5.44297,-8.60736 -4.32617,-12.94336 0.83055,-3.22463 1.05056,-3.35025 6.79883,-3.83398 5.53775,-0.46601 5.9414,-0.66994 5.9414,-3 0,-2.19983 -0.48027,-2.5359 -4,-2.80078 -5.42218,-0.40804 -7.05026,-2.61629 -4.53515,-6.14844 2.91341,-4.09151 1.19085,-5.66379 -3.30078,-3.01367 -2.11818,1.24976 -6.16716,2.38088 -9.65625,2.69726 -3.30435,0.29963 -6.00782,0.85955 -6.00782,1.2461 0,0.38655 1.8,1.24321 4,1.90234 3.84879,1.15313 4,1.35837 4,5.43555 0,4.58834 -1.34343,7.12092 -6.88085,12.96289 -7.27992,7.6803 -23.46606,9.07949 -29.23829,2.52734 l -2.03125,-2.30859 0.73243,2.5 c 3.17429,10.81403 -2.93385,18.58693 -15.50196,19.72656 -7.52792,0.68261 -15.02791,-1.83839 -20.28515,-6.82031 -3.69673,-3.50317 -3.79493,-3.77751 -3.79493,-10.68359 0,-7.73178 0.26158,-7.41397 -7.14843,-8.66016 -2.00671,-0.33748 -4.84297,-1.55488 -6.30274,-2.70313 -3.05859,-2.40588 -3.56199,-2.17537 -3.84375,1.75782 -0.17721,2.47372 0.43919,3.20132 4.55274,5.37304 2.61609,1.38116 5.01226,3.30776 5.32422,4.28125 0.31195,0.97349 -0.1814,4.02073 -1.09571,6.77344 -1.36863,4.12056 -2.36734,5.3661 -5.65429,7.04297 -2.67506,1.3647 -4.93297,1.82898 -6.83985,1.41016 -2.33042,-0.51184 -3.55923,0.0215 -6.78906,2.93945 -3.19211,2.88389 -4.73958,3.5625 -8.11328,3.5625 -5.39169,0 -11.63326,-3.21859 -13.59375,-7.00977 -1.19116,-2.30344 -2.23027,-2.99023 -4.52149,-2.99023 -2.32332,0 -2.97461,0.44585 -2.97461,2.0332 0,4.03278 -2.70952,8.60403 -5.87695,9.91602 -1.71766,0.71147 -3.1665,1.8011 -3.2207,2.42187 -0.0542,0.62077 -0.1667,2.25391 -0.25,3.62891 -0.12075,1.99307 -0.76066,2.56998 -3.15235,2.83984 -4.8531,0.54756 -5.68032,1.78931 -3.95117,5.92774 1.43001,3.4225 1.37989,3.72996 -1.20703,7.46289 -3.45472,4.98516 -7.75884,8.60513 -12.99805,10.93359 -2.28628,1.01609 -6.78628,2.09958 -10,2.40625 -4.75265,0.45351 -6.43061,0.18549 -8.99023,-1.42969 -6.42339,-4.05332 -6.97088,-15.37886 -1.30078,-26.89648 2.95203,-5.99642 3.57205,-6.60747 9.33984,-9.19531 6.29012,-2.82218 12.98043,-8.43178 12.3418,-10.34766 -0.19403,-0.5821 -1.07446,-1.5136 -1.95703,-2.07031 -1.24016,-0.78227 -2.59056,-0.20622 -5.94141,2.53515 -14.24521,11.65423 -29.7382,11.72156 -33.77148,0.14649 -2.03334,-5.83544 -0.21769,-11.39379 5.59179,-17.12109 2.44597,-2.41136 4.28832,-4.67789 4.09375,-5.03711 -1.85505,-3.42473 -4.02515,-9.11743 -5.21093,-13.66993 -1.63194,-6.26547 -1.03445,-15.48437 1.0039,-15.48437 0.69507,0 3.31506,2.1375 5.82227,4.75 5.99402,6.24574 14.6406,9.76616 21.88476,8.9082 2.76195,-0.32712 5.28545,-0.85965 5.60743,-1.18164 0.90534,-0.90533 -1.74877,-2.20292 -5.8418,-2.85742 -4.24616,-0.67899 -10.29004,-5.12443 -13.93555,-10.24805 -2.09337,-2.94215 -2.50526,-4.67643 -2.53906,-10.6914 -0.0572,-10.19634 2.15311,-15.23364 9.81641,-22.3711 9.75713,-9.08759 14.05323,-11.6829 19.44922,-11.75 4.39138,-0.0546 4.67414,0.10461 5.17968,2.94141 0.72851,4.08793 3.81793,3.97865 6.47461,-0.23047 15.49995,-24.55742 22.01371,-30.2912 42.56055,-37.46094 7.02732,-2.45215 8.95171,-3.08533 16.23828,-3.16015 z m 463.02148,5.09179 c -2.88084,0.005 -10.11153,2.20948 -26.8789,7.80078 -25.0876,8.36578 -28.40235,9.71697 -28.40235,11.58204 0,1.85063 4.9843,0.63508 27.3711,-6.67774 25.5922,-8.3599 29.6289,-9.92092 29.6289,-11.45898 0,-0.79451 -0.40927,-1.24831 -1.71875,-1.2461 z m -98.57812,10.27735 c 2.4231,0.0231 16.31017,3.66144 17.13867,4.49023 1.4497,1.45036 0.34369,13.28871 -1.66601,17.83203 -1.134,2.56356 -2.30296,4.66016 -2.59766,4.66016 -0.8375,0 -4.2225,-7.03946 -6.5,-13.51953 -1.1379,-3.23739 -3.44074,-7.59512 -5.11914,-9.6836 -2.5563,-3.18094 -2.76136,-3.79369 -1.25586,-3.77929 z m -207.64063,3.15234 c -1.14545,0.007 -1.0625,0.60906 -1.0625,1.8125 0,1.24063 0.84087,2.1658 2.25,2.47656 1.2375,0.27291 9.225,2.03458 17.75,3.91407 8.525,1.8795 15.89729,3.0448 16.38282,2.58984 2.28982,-2.14561 -0.61392,-3.79665 -9.55469,-5.42969 -5.12966,-0.93694 -12.92813,-2.56223 -17.32813,-3.61133 -4.91818,-1.17264 -7.29204,-1.75912 -8.4375,-1.75195 z m 88.01758,5.75 c -0.67051,0.017 -1.08008,0.35849 -1.08008,1.08008 0,0.55 0.67591,1 1.50196,1 0.82605,0 3.18855,1.74358 5.25,3.875 2.1988,2.27343 5.68189,4.51304 8.42578,5.41601 2.57249,0.84656 6.38974,2.70299 8.48242,4.125 4.93643,3.35438 7.92307,3.39997 3.83984,0.0586 -1.65,-1.35022 -5.925,-3.62146 -9.5,-5.04688 -4.01542,-1.60103 -7.94758,-4.08975 -10.28711,-6.50976 -2.41942,-2.50267 -5.15767,-4.03539 -6.63281,-3.99805 z m -21.69531,8.08008 c -0.63211,0 0.37357,8.20753 1.30273,10.62891 0.28997,0.75563 -0.0951,1.37109 -0.85742,1.37109 -1.85188,0 -7.13431,6.10275 -6.125,7.07617 0.43748,0.42192 2.36992,1.24575 4.29492,1.83008 3.12161,0.94755 2.87835,1.00182 -2.25,0.50586 -6.12455,-0.59232 -6.45114,-0.31149 -4.5,3.86523 1.24672,2.6688 4.01418,4.26373 8.75,5.04102 1.375,0.22568 3.4,0.45707 4.5,0.51367 1.83613,0.0945 1.80082,-0.0642 -0.44531,-1.93359 -1.88216,-1.56646 -2.14214,-2.22563 -1.12304,-2.85547 0.75984,-0.46961 0.99466,-1.35479 0.54882,-2.07617 -0.58265,-0.94276 -0.11476,-1.09217 1.8711,-0.59375 3.58846,0.90065 3.33326,-0.4767 -0.49219,-2.6543 -4.36978,-2.48746 -2.73561,-3.41762 2.14062,-1.21875 3.88027,1.74961 4.22479,1.7496 10.00977,-0.002 3.29529,-0.99774 5.99023,-2.17458 5.99023,-2.61524 0,-2.16509 -6.28206,-6.18377 -12.98632,-8.30664 -6.47213,-2.04937 -7.65755,-2.79057 -8.75196,-5.47266 -0.6963,-1.70644 -1.54108,-3.10351 -1.87695,-3.10351 z m 17.23633,5.51953 c -2.24496,-0.1652 -2.00691,0.75228 0.63867,2.82227 1.51756,1.18738 5.56756,4.54966 9,7.47265 5.59277,4.76267 6.62628,5.26637 9.94336,4.85156 3.47423,-0.43444 4.11877,-0.0405 10.5,6.39844 7.43654,7.50377 7.29687,7.39115 7.29687,5.89258 0,-4.17023 -26.85439,-25.24053 -34.30273,-26.91406 -1.30301,-0.29277 -2.32785,-0.46837 -3.07617,-0.52344 z m 216.0332,5.64258 c -1.6987,-0.0429 -5.4491,0.46291 -13.6543,1.45898 -13.6507,1.65715 -16.77833,2.64357 -13.99023,4.40625 1.9065,1.20534 1.53743,1.2179 14.49023,-0.51562 6.05,-0.8097 11.7875,-1.48149 12.75,-1.49219 1.0768,-0.012 1.75,-0.78887 1.75,-2.01953 0,-1.20317 0.353,-1.79502 -1.3457,-1.83789 z m -59.74219,1.95703 c 0.30461,-0.0317 0.59966,0.0586 0.84571,0.30469 0.3432,0.34317 -0.13661,1.38468 -1.06641,2.31445 -1.559,1.55894 -1.69141,1.56164 -1.69141,0.0352 0,-1.36721 0.9983,-2.55912 1.91211,-2.6543 z m -73.41406,2.31445 c -0.58022,0.0498 -1.13055,0.40735 -1.92773,0.92969 -1.6943,1.11015 -3.46222,1.45113 -5.22852,1.00781 -2.2099,-0.55464 -2.56131,-0.38551 -2.03711,0.98047 0.7424,1.93462 0.28986,2.03675 -2.46484,0.5625 -1.8313,-0.9801 -1.95748,-0.85839 -1.30078,1.25 0.7224,2.31932 0.71155,2.32316 -1.40625,0.43164 -2.12039,-1.89383 -2.13282,-1.89011 -2.13282,0.76953 v 2.67578 l -4,-2.04101 -4,-2.04102 v 2.52149 c 0,3.19519 -0.71588,3.16749 -4.19531,-0.16602 -1.96549,-1.88306 -2.80469,-2.23867 -2.80469,-1.1875 0,0.825 1.34598,2.78797 2.99024,4.36328 4.83511,4.63232 2.49017,4.20664 -2.58203,-0.46875 -3.50881,-3.23431 -4.83402,-3.94676 -5.45899,-2.93554 -0.66236,1.07173 -1.2337,0.96611 -2.89257,-0.53516 -4.29825,-3.88986 -3.08139,-0.43311 1.57812,4.48242 2.67638,2.82344 5.24412,5.80441 5.70703,6.625 1.37478,2.43702 -0.0516,2.70449 -2.01953,0.37891 -3.21741,-3.80206 -15.39899,-14.29241 -15.95312,-13.73828 -0.58342,0.58343 8.67342,9.68631 9.85937,9.69531 0.39971,0.003 2.53721,2.29631 4.75,5.0957 2.21279,2.79939 4.02148,4.41795 4.02148,3.59571 0,-2.15419 7.3322,-1.6007 9.92969,0.75 1.71268,1.54995 2.28556,1.63246 3.62891,0.51757 1.10981,-0.92106 1.79874,-0.99317 2.26758,-0.23828 0.37058,0.59668 1.79882,1.29328 3.17382,1.54883 5.8701,1.09098 6.24958,0.69483 2.82618,-2.94922 -2.6643,-2.83597 -1.00948,-3.07535 2.17382,-0.31445 2.7548,2.38922 3.41138,2.51359 2.63868,0.5 -0.8908,-2.32134 1.20476,-1.7725 3.75976,0.98437 1.266,1.36605 2.59814,2.18697 2.96094,1.82422 0.3627,-0.36275 -0.32073,-1.70434 -1.51953,-2.98047 -2.8184,-3.00005 -1.54608,-4.33927 1.44922,-1.52539 1.8239,1.71345 3.03698,2.02032 6.05078,1.53125 2.6176,-0.42478 3.60869,-1.02771 3.24609,-1.97265 -0.6927,-1.80513 1.09374,-1.7539 2.11524,0.0605 1.1869,2.10813 6.29882,3.19392 6.29882,1.3379 0,-2.16335 -4.93026,-8.43259 -12.32226,-15.66602 -4.48566,-4.38946 -5.9032,-5.76973 -7.17969,-5.66016 z m 45.24219,2.76758 c 0.2311,0.0712 0.56129,0.59369 1.11914,1.60547 1.5884,2.88095 1.04858,4.99286 -0.72852,2.85156 -0.7128,-0.85889 -1.12496,-2.37045 -0.91797,-3.35937 0.16515,-0.7891 0.29625,-1.16884 0.52735,-1.09766 z m -26.24024,3.82813 c -0.55,10e-4 -1.66281,0.42218 -2.47461,0.93554 -1.2527,0.79221 -1.10811,1.43238 0.95899,4.23438 1.3395,1.81572 3.77872,4.78056 5.41992,6.58789 3.1405,3.45843 5.84725,3.86555 6.40625,0.96289 0.3449,-1.79067 -8.51825,-12.7257 -10.31055,-12.7207 z m -141.21875,5.70117 c -0.18008,-0.0164 -0.28125,0.0405 -0.28125,0.17969 0,1.87691 4.34142,5.0746 9.4375,6.95117 2.78507,1.02557 5.7375,2.11467 6.5625,2.42187 2.56873,0.95652 4.18334,0.7668 3.7793,-0.44531 -0.21315,-0.63946 -3.1549,-1.91987 -6.53711,-2.8457 -3.38221,-0.92583 -7.74484,-2.90099 -9.69531,-4.38868 -1.46285,-1.11577 -2.72537,-1.82384 -3.26563,-1.87304 z m 124.71875,4.26953 c 0.55,0 1,0.45 1,1 0,0.55 -0.45,1 -1,1 -0.55,0 -1,-0.45 -1,-1 0,-0.55 0.45,-1 1,-1 z m 4.5,1 c 0.825,0 1.5,0.675 1.5,1.5 0,0.825 -0.1125,1.46527 -0.25,1.42187 -3.0091,-0.95024 -3.8524,-2.92187 -1.25,-2.92187 z m -126.91211,0.74609 c -1.08599,0.0539 -1.23428,1.19375 -1.43945,3.75391 -0.33821,4.22038 1.4626,6.16135 8.35156,8.99023 6.1802,2.53784 11.09333,3.27882 10,1.50977 -0.33992,-0.55 -1.46492,-1 -2.5,-1 -1.03508,0 -2.16008,-0.45 -2.5,-1 -0.33992,-0.55 0.30895,-1 1.44141,-1 3.32372,0 2.78588,-4.75745 -0.69141,-6.11719 -1.5125,-0.59144 -5.09356,-2.14425 -7.95898,-3.44922 -2.44714,-1.11447 -3.85846,-1.7294 -4.70313,-1.6875 z m 181.97266,2.25391 c 0.2426,0 0.43945,0.45 0.43945,1 0,0.55 -0.47609,1 -1.05859,1 -0.5825,0 -0.78131,-0.45 -0.44141,-1 0.3399,-0.55 0.81805,-1 1.06055,-1 z m 14.24805,1 c 0.13464,0 0.16211,0.33333 0.16211,1 0,0.825 -0.43751,2.175 -0.97071,3 -0.8617,1.33333 -0.96875,1.33333 -0.96875,0 0,-0.825 0.43565,-2.175 0.96875,-3 0.43085,-0.66667 0.67396,-1 0.8086,-1 z m -346.54883,4.34961 c -0.32154,-0.0515 -0.6217,0.4614 -1.12109,1.39453 -1.71671,3.20771 0.74625,8.42662 5.50195,11.6582 3.83427,2.60546 8.65638,3.33032 11.24414,1.69141 1.00663,-0.63754 0.46221,-1.07105 -2,-1.59375 -4.90447,-1.04116 -9.81066,-5.13274 -11.81641,-9.85547 -0.94757,-2.23115 -1.39519,-3.22873 -1.80859,-3.29492 z m 348.28516,0.65039 c 3.8841,0 4.51725,6.03151 1.00195,9.54687 -2.563,2.56294 -4.99712,3.15204 -6.04102,1.4629 -0.7945,-1.28553 3.65617,-11.00977 5.03907,-11.00977 z m 54.95507,1 c -18.0833,0 -22.5,0.26238 -22.5,1.33398 0,0.73334 0.19068,1.52084 0.42188,1.75 0.2312,0.22917 7.62655,0.57596 16.43555,0.77149 18.8049,0.4174 28.14257,-0.39618 28.14257,-2.45313 0,-1.16088 -3.8671,-1.40234 -22.5,-1.40234 z m -257.00195,2.44922 c -0.69847,0.005 -0.191,0.92316 1.87305,2.75 2.29074,2.02747 2.49649,2.71722 1.73047,5.80078 -0.4782,1.925 -1.18481,4.25868 -1.56836,5.18555 -0.91586,2.21317 2.28492,4.95611 12.19922,10.45117 4.27214,2.36786 7.83406,4.31768 7.91406,4.33398 0.08,0.0163 1.06061,-1.82017 2.17969,-4.08203 1.88692,-3.8138 1.92324,-4.34746 0.5,-7.33203 -0.99739,-2.09156 -3.79421,-4.58965 -7.98829,-7.13672 -3.54943,-2.15557 -8.71737,-5.41779 -11.48437,-7.24805 -2.75389,-1.82157 -4.657,-2.72796 -5.35547,-2.72265 z m 206.33008,8.1875 c 0.28102,-0.008 0.48247,0.0554 0.57617,0.20703 0.6085,0.9845 -1.72559,3.29217 -5.08789,5.0293 -2.8052,1.44931 -3.31641,1.42032 -3.31641,-0.1875 0,-1.43907 5.86099,-4.99498 7.82813,-5.04883 z m -6.19727,11.65625 c 0.30766,-0.006 0.65064,-0.001 1.03516,0.01 l 3.45703,0.0977 -2.30859,1.74023 -2.3086,1.74219 2.47657,0.91406 2.47461,0.91602 -3.17774,1.64453 c -5.3509,2.76705 -5.94773,2.2389 -4.67383,-4.13086 0.47093,-2.35445 0.8718,-2.89369 3.02539,-2.93359 z m -200.42968,1.70703 c 1.45747,0 1.83967,0.45397 1.38281,1.64453 -0.35487,0.92477 0.1027,2.45671 1.04687,3.5 0.9235,1.02046 1.24692,1.85547 0.7168,1.85547 -1.70455,0 -4.07553,-2.43497 -4.625,-4.75 -0.41896,-1.76515 -0.10099,-2.25 1.47852,-2.25 z m 232.52343,5.55469 c -1.63624,-0.0284 -2.72608,0.0483 -2.94336,0.26562 -1.9767,1.97665 0.27719,2.86187 10.42579,4.09766 5.662,0.68946 10.96796,1.38877 11.79296,1.55273 5.052,1.00403 8.50336,-0.36775 6.34766,-2.52343 -1.17292,-1.17299 -18.53267,-3.26945 -25.62305,-3.39258 z m -233.17578,0.92773 c 0.7016,-0.003 1.45117,0.41845 1.45117,1.07813 0,0.24254 -0.70113,0.43945 -1.55859,0.43945 -0.8575,0 -1.27515,-0.45666 -0.92969,-1.01563 0.21406,-0.34634 0.61615,-0.50027 1.03711,-0.50195 z m 206.95117,0.24024 -2,2.07617 c -2.4009,2.49217 -7.00512,3.80929 -7.95312,2.27539 -0.6588,-1.066 -0.0829,-1.41162 3.95312,-2.3711 1.1,-0.26151 2.9,-0.81462 4,-1.22851 z m -367.96679,3.27734 c -3.88561,0 -3.4021,3.71953 0.71679,5.50977 3.67568,1.5976 4.91298,1.75084 7.16993,0.88476 4.23839,-1.62642 -1.64207,-6.39453 -7.88672,-6.39453 z m 359.51367,5.53906 c 0.30564,0.0406 0.69805,0.16622 1.20312,0.35156 1.5224,0.55866 2.34904,1.78825 2.55274,3.80274 0.3989,3.94477 -2.18672,6.32579 -3.73242,3.4375 -0.5884,-1.09936 -1.07032,-3.36477 -1.07032,-5.0332 0,-2.04289 0.12996,-2.6803 1.04688,-2.5586 z m -500.22852,0.97266 c -0.54409,0.0139 -0.97531,0.20482 -1.39453,0.55273 -2.14003,1.77607 -1.7772,2.62401 2.3086,5.40039 4.04352,2.74764 5.03243,2.97084 7.16406,1.6211 2.16273,-1.36943 0.60611,-3.7886 -3.92383,-6.09961 -2.02422,-1.03268 -3.24748,-1.49782 -4.1543,-1.47461 z m 285.53907,6.49023 c -2.11982,-0.002 -3.35743,1.7272 -3.35743,4.69141 0,1.19884 0.73816,1.39225 3.41211,0.89062 2.99561,-0.56198 3.67102,-0.27693 5.53711,2.34375 4.08161,5.73209 4.44403,8.40474 1.69141,12.46094 -3.65045,5.37925 -4.21869,10.51703 -1.77344,16.04492 1.11117,2.51198 2.48751,4.56641 3.05664,4.56641 0.7089,0 0.70309,-0.72535 -0.0156,-2.30273 -1.19993,-2.63355 1.01051,-15.83489 2.74804,-16.41407 0.55648,-0.18549 1.54828,1.45625 2.20508,3.64844 1.15111,3.84206 2.72127,5.81974 3.7793,4.76172 0.27896,-0.27897 -0.24768,-1.96659 -1.16992,-3.75 -0.92224,-1.78342 -2.96146,-6.40144 -4.53321,-10.26367 -3.8721,-9.51486 -8.84393,-16.67574 -11.58007,-16.67774 z m 120.74609,3.91797 c -0.19507,-0.0219 -0.37952,0.0471 -0.53711,0.23047 -0.16551,0.19258 -0.60722,3.16211 -0.98242,6.59961 -0.3752,3.4375 -0.41241,6.25 -0.082,6.25 0.98905,0 3.49804,-6.74835 3.49804,-9.4082 0,-1.75998 -1.05118,-3.57675 -1.89648,-3.67188 z m -43.71875,2.7207 c -2.67112,-0.0141 -5.22094,0.31999 -8.44531,0.93165 -4.33586,0.82249 -10.25958,2.59988 -13.16211,3.95117 -2.90253,1.35128 -6.24127,2.46179 -7.41992,2.46679 -2.17257,0.01 -3.82944,2.43522 -2.80078,4.09961 0.93873,1.51889 4.17624,1.03529 10.63671,-1.58984 6.84814,-2.78265 10.1294,-3.05115 16.19141,-1.33008 6.30547,1.79018 6.29259,2.51535 -0.0586,3.30274 -5.59121,0.69316 -13.07025,3.1153 -12.22657,3.95898 0.22268,0.22269 2.86448,-0.23376 5.8711,-1.01367 5.79635,-1.50355 19.58735,-1.94183 20.38672,-0.64844 0.26119,0.42266 -1.17517,0.61625 -3.19141,0.43164 -4.30407,-0.39408 -11.90494,0.78775 -21.66602,3.36719 -8.226,2.17378 -8.38644,2.25915 -6.4707,3.4707 2.17558,1.37588 6.09077,1.14755 9.33594,-0.54492 3.83607,-2.00065 5.97405,-1.88222 8.08398,0.44922 0.96741,1.06898 2.95093,2.13583 4.40625,2.36914 4.52336,0.72516 7.5484,-0.2914 10.16602,-3.41602 2.66532,-3.18153 3.91617,-3.18672 8.83594,-0.0351 2.22826,1.4274 2.25851,1.5812 0.55859,2.82422 -2.25755,1.65076 -0.49746,1.71988 4.63672,0.18164 2.52456,-0.75638 3.6077,-1.5882 3.25781,-2.5 -0.72294,-1.88394 2.44375,-1.75547 4.37695,0.17773 0.84955,0.84956 2.05603,1.37391 2.67969,1.16602 1.08178,-0.36059 1.21912,-0.74664 1.50781,-4.21094 0.0688,-0.825 0.8,-1.5 1.625,-1.5 0.825,0 1.5,-0.62485 1.5,-1.38867 0,-1.81132 -8.98399,-9.61133 -11.07031,-9.61133 -0.88528,0 -5.16905,-0.9263 -9.51953,-2.05859 -8.78856,-2.2874 -13.57353,-3.27735 -18.02539,-3.30079 z m 176.36523,3.37305 c -4.5076,-0.0211 -3.2731,2.65831 2,4.3418 4.8155,1.5374 28.0807,8.09367 31.75,8.94726 3.7852,0.88055 4.5,0.69275 4.5,-1.18554 0,-1.1262 -0.9046,-2.1003 -2.25,-2.42383 -4.8977,-1.17774 -20.6045,-5.6378 -26.75,-7.5957 -3.575,-1.13896 -7.7375,-2.07699 -9.25,-2.08399 z m -251.83789,3.8711 c -0.12476,0.0361 -0.27215,0.14324 -0.4414,0.3125 -0.49267,0.49267 -4.47071,22.69563 -4.47071,24.95312 0,0.55935 0.551,0.83326 1.22266,0.60938 0.74046,-0.24683 1.89773,-5.28791 2.94141,-12.80665 1.39831,-10.07361 1.62136,-13.32099 0.74804,-13.06835 z m -83.59179,0.26367 c 0.13368,0.006 0.27856,0.0235 0.43554,0.0547 1.53234,0.30481 1.74414,1.68052 1.74414,11.29688 0,9.29533 0.24524,10.99826 1.6211,11.27344 2.02674,0.40537 2.84713,-2.44503 2.86523,-9.95117 0.009,-3.81418 0.53044,-6.19451 1.58594,-7.25 1.84451,-1.84451 8.22908,-2.07664 11.84375,-0.42969 2.13499,0.97277 3.31187,0.72289 7.9082,-1.6836 4.45698,-2.33352 5.92128,-2.6638 8.38672,-1.89257 l 2.98633,0.93359 -3.33984,12 c -3.18832,11.45451 -3.55564,12.19337 -8.09766,16.25977 -5.8434,5.23151 -13.58385,9.24023 -17.8418,9.24023 -3.02049,0 -3.22554,-0.24269 -3.87304,-4.56055 -0.59237,-3.95021 -0.97718,-4.51881 -2.86524,-4.25 -1.82789,0.26025 -2.22703,1.05891 -2.47851,4.94141 l -0.30079,4.62891 -6.19921,1.32812 c -3.41007,0.73052 -7.17882,1.22244 -8.375,1.09375 -1.19618,-0.1287 -2.45982,0.22863 -2.8086,0.79297 -0.34878,0.56434 -1.98692,1.02539 -3.64062,1.02539 -1.6537,0 -3.79013,0.42002 -4.7461,0.93164 -0.95747,0.51244 -2.34591,0.55278 -3.09179,0.0918 -0.76266,-0.47135 -2.36351,-0.37667 -3.66602,0.21679 -1.68893,0.76953 -2.70882,0.72631 -3.7793,-0.16211 -0.97979,-0.81315 -2.06672,-0.90655 -3.27929,-0.2832 -0.99765,0.51288 -4.38351,1.2196 -7.52539,1.57227 -6.44422,0.72336 -8.05052,-0.54893 -7.08203,-5.61524 0.64872,-3.39357 -2.05141,-4.83336 -4.49024,-2.39453 -1.27283,1.27283 -1.36669,1.89308 -0.42383,2.83594 3.03404,3.03404 -0.21543,6.80664 -5.86328,6.80664 -3.92757,0 -3.92969,-7e-5 -3.92969,-4.06445 0,-4.00487 -1.38713,-7.94983 -2.78515,-7.91993 -2.46973,0.0529 -3.71602,2.29268 -3.72852,6.69922 l -0.0137,4.78516 -14.48633,0.10351 c -20.63226,0.14564 -48.70517,-1.18889 -53.98633,-2.5664 -2.475,-0.64557 -5.51804,-1.42187 -6.76367,-1.72461 -1.24563,-0.30274 -2.50453,-0.93715 -2.79687,-1.41016 -1.22385,-1.98022 2.23418,-9.51773 6.27343,-13.67383 2.35829,-2.42648 4.28711,-4.8001 4.28711,-5.27539 0,-0.4753 3.4875,-0.80406 7.75,-0.73046 9.99481,0.17246 18.11065,-2.19626 23.16407,-6.76172 2.10643,-1.90303 4.50726,-3.46094 5.33593,-3.46094 2.19367,0 8.83618,-2.92029 11.61915,-5.10938 3.07554,-2.41921 5.33243,-2.39739 6.87109,0.0664 1.50446,2.40901 10.01902,5.04297 16.29687,5.04297 2.57031,0 9.126,-1.16718 14.56836,-2.59375 5.44237,-1.42656 11.35703,-2.82577 13.14453,-3.10938 l 3.25,-0.51562 0.125,10.60937 c 0.0688,5.83518 0.1812,11.17188 0.25,11.85938 0.0696,0.69579 1.81059,1.39004 3.92579,1.56445 4.07918,0.33637 22.73124,-2.51415 23.91406,-3.65429 0.39258,-0.37842 0.84258,-5.59412 1,-11.5918 0.19529,-7.44017 0.67231,-11.03209 1.5,-11.30664 1.57772,-0.52333 2.23043,2.4293 2.70703,12.23828 0.21378,4.4 0.43207,8.1125 0.48437,8.25 0.0523,0.1375 0.99375,0.25 2.09375,0.25 1.36142,0 2.05061,-0.7184 2.15625,-2.25 0.23056,-3.34271 0.8262,-17.89834 0.8418,-20.57227 0.009,-1.46257 0.38651,-2.06784 1.32227,-2.02929 z m 105.70117,4.70703 c -0.13905,-0.004 -0.31047,0.10148 -0.51563,0.30664 -1.00666,1.00666 -1.73542,9.7868 -0.95703,11.5332 0.56149,1.25979 1.01849,-0.16009 1.51367,-4.69531 0.55019,-5.039 0.56151,-7.126 -0.041,-7.14453 z m -282.03516,2.21875 c -1.92668,0.0817 -3.48633,1.91205 -3.48633,4.45508 0,2.30286 0.79684,3.23088 4.40821,5.14062 5.28032,2.7923 7.45769,2.9861 4.34179,0.38672 -1.57352,-1.31268 -2.25,-2.96566 -2.25,-5.49805 0,-2.42997 -0.53696,-3.82677 -1.63476,-4.24804 -0.46907,-0.18 -0.93429,-0.25519 -1.37891,-0.23633 z m 334.51367,4.92578 c 0.825,0 1.5,0.45 1.5,1 0,0.55 -0.675,1 -1.5,1 -0.825,0 -1.5,-0.45 -1.5,-1 0,-0.55 0.675,-1 1.5,-1 z m 104.51563,0.13281 c 3.43752,0.10652 8.7853,1.8851 11.14062,3.84766 2.9349,2.44555 2.14865,2.34936 -7.15625,-0.875 -4.8439,-1.67853 -6.72937,-2.71033 -5.32617,-2.91211 0.3988,-0.0574 0.85073,-0.0758 1.3418,-0.0606 z m -112.51563,2.86719 c -1.375,0 -2.5,0.45 -2.5,1 0,0.55 1.125,1 2.5,1 1.375,0 2.5,-0.45 2.5,-1 0,-0.55 -1.125,-1 -2.5,-1 z m 109.5,1 c 0.55,0 1,0.675 1,1.5 0,0.825 -0.45,1.5 -1,1.5 -0.55,0 -1,-0.675 -1,-1.5 0,-0.825 0.45,-1.5 1,-1.5 z m -10.19921,0.13477 c 0.48126,0.0338 1.24015,0.47846 1.9375,1.17578 1.5588,1.55895 1.56165,1.68945 0.0352,1.68945 -1.8229,0 -3.33381,-1.77167 -2.34961,-2.75586 0.0858,-0.0858 0.21653,-0.12064 0.37696,-0.10937 z m -68.13086,3.02148 c -0.7369,-0.0649 -1.82008,0.005 -3.25196,0.20117 -5.54917,0.7606 -7.13833,1.58003 -5.2832,2.72656 2.80838,1.73568 -0.91215,3.1592 -8.08008,3.0918 -4.79012,-0.0451 -6.88965,0.28105 -6.44531,1 0.4161,0.67324 3.54049,0.89914 8.47851,0.61328 6.50355,-0.37649 8.50216,-0.92389 11.86719,-3.25586 4.01381,-2.78157 4.92554,-4.18216 2.71485,-4.37695 z m 19.32422,0.90039 c -0.43651,-0.0681 -0.94361,0.62735 -1.36329,2.19336 -0.9888,3.68968 -0.68983,6.01993 1.34375,10.5 1.06103,2.3375 2.39968,4.25 2.97657,4.25 1.43139,0 1.31804,-1.41996 -0.45118,-5.6543 -0.825,-1.97451 -1.5,-5.33396 -1.5,-7.46679 0,-2.38412 -0.44464,-3.73475 -1.00585,-3.82227 z m 67.66796,0.32031 c -1.77447,0.11854 -4.66211,1.10301 -4.66211,1.84766 0,0.58247 1.13425,0.70777 2.74805,0.30273 2.9465,-0.73954 3.83452,-1.2808 3.16992,-1.9375 -0.19627,-0.19392 -0.66436,-0.2524 -1.25586,-0.21289 z m -479.12304,0.90039 c 0.63755,0.0472 1.46816,0.31998 2.71679,0.77149 l 3.5625,1.28711 0.3418,9.1582 c 0.29787,8.00461 0.68764,9.68329 3.09766,13.32227 4.05476,6.12245 8.03519,7.48903 20.01562,6.87304 7.93386,-0.40793 10.05973,-0.21369 11.30664,1.03321 0.88821,0.88819 1.24705,2.21872 0.85157,3.15625 -0.37611,0.89158 -1.11327,3.84986 -1.63868,6.57226 -1.99823,10.35388 -7.40407,16.76391 -17.23828,20.44336 -5.80338,2.17132 -21.48362,3.92652 -22.80469,2.55274 -1.70517,-1.77322 -0.73632,-3.48232 1.63672,-2.88672 5.20667,1.30679 9.24897,-7.0477 8.1875,-16.92578 -1.56583,-14.5717 -6.6173,-20.96977 -12.34375,-15.63477 -3.96794,3.6967 -4.73552,2.69206 -5.05078,-6.61523 -0.31068,-9.17215 1.39321,-16.84127 4.72461,-21.25782 1.04305,-1.3828 1.57218,-1.92833 2.63477,-1.84961 z m 450.01172,3.72852 c -3.2194,-0.009 -0.45619,1.72915 4.44921,2.79883 6.0875,1.32743 6.20314,1.33221 5.52344,0.23242 -0.6747,-1.09162 -7.02835,-3.02325 -9.97265,-3.03125 z m 91.38476,0.99414 c -4.5423,0 -1.52575,3.21381 6.81445,7.25781 4.8125,2.33349 8.90069,4.57969 9.08399,4.99219 0.1834,0.4125 0.96272,0.75 1.73242,0.75 0.7697,0 4.22097,1.57761 7.66797,3.50391 6.4679,3.61451 9.26562,4.06124 9.26562,1.48242 0,-1.66226 -31.36995,-17.98633 -34.56445,-17.98633 z m -386.92383,0.19531 c -0.36639,0.0227 -0.73994,0.13784 -1.10156,0.36133 -1.29845,0.80249 -1.12409,3.82903 0.30273,5.25586 1.75192,1.75191 3.2418,0.9176 3.5918,-2.01172 0.24712,-2.06827 -1.20526,-3.7039 -2.79297,-3.60547 z m -15.49804,0.30469 c -2.34654,0 -3.33839,3.36369 -1.36133,4.61523 2.06874,1.30957 3.34765,0.46985 3.34765,-2.19726 0,-1.74445 -0.55253,-2.41797 -1.98632,-2.41797 z m 181.22265,1.125 c -0.20515,-0.0414 -0.3571,0.21968 -0.48437,0.75391 -0.24612,1.0331 1.62146,6.0188 4.15039,11.08007 2.52892,5.06127 4.59765,10.40492 4.59765,11.87305 0,1.46814 0.44291,2.66797 0.98243,2.66797 0.53952,0 1.2882,1.22514 1.66406,2.72266 0.37585,1.49752 1.6224,3.5076 2.76953,4.46679 2.85734,2.38919 3.94406,2.23739 3.14844,-0.43945 -0.36781,-1.2375 -0.92929,-3.9375 -1.24805,-6 -0.3437,-2.22393 -1.13578,-3.75 -1.94726,-3.75 -0.75259,0 -1.36915,-0.675 -1.36915,-1.5 0,-0.825 -0.402,-1.5 -0.89453,-1.5 -0.49252,0 -1.7633,-1.6875 -2.82422,-3.75 -1.06091,-2.0625 -2.68222,-5.1 -3.60156,-6.75 -0.91933,-1.65 -2.41614,-4.8 -3.32617,-7 -0.78431,-1.89608 -1.27526,-2.80602 -1.61719,-2.875 z m -23.49023,4.15625 c -0.58796,0.10637 0.46649,2.00175 3.37109,5.2168 3.43129,3.79802 5.38281,4.96235 5.38281,3.21093 0,-0.43549 -2.025,-2.77995 -4.5,-5.20898 -2.34656,-2.30298 -3.7966,-3.30148 -4.2539,-3.21875 z m -90.63477,0.22266 c -0.84406,0.0295 -1.61133,0.92307 -1.61133,2.49609 0,1.51005 0.57103,2.5 1.44141,2.5 1.89318,0 2.71407,-1.43225 1.95508,-3.41016 -0.42572,-1.10941 -1.12867,-1.60886 -1.78516,-1.58593 z m -9.13476,2.1875 c -1.48725,0.0325 -4.34971,0.55312 -9.72852,1.44921 -7.31151,1.21807 -10.44445,1.36327 -12.19336,0.56641 -2.8639,-1.30488 -3.55469,-0.72781 -3.55469,2.97266 0,2.77074 0.11116,2.82929 4.25,2.26953 2.3375,-0.31613 5.375,-0.8465 6.75,-1.17774 1.375,-0.33125 5.425,-0.65319 9,-0.71679 6.29554,-0.11197 6.50994,-0.20036 6.81641,-2.83399 0.21019,-1.80624 0.57233,-2.5711 -1.33984,-2.52929 z m 59.72265,4.08203 c 3.83721,0.0531 7.53178,0.52785 11.76367,1.38476 8.77272,1.77637 12.52992,3.52623 14.17579,6.60157 1.93043,3.60705 5.81999,19.87327 5.84179,24.43164 0.011,2.30504 -0.45589,4.48528 -1.03906,4.8457 -0.69689,0.4307 -0.82886,3.32214 -0.38281,8.43555 1.11664,12.80095 -2.09082,18.64117 -14.09961,25.66601 -6.83024,3.99553 -7.72154,5.21924 -4.42969,6.08008 1.44442,0.37772 1.8557,1.07013 1.43164,2.40625 -0.84651,2.6671 2.03282,2.43832 3.96094,-0.31445 0.84353,-1.20431 1.83078,-1.89189 2.19531,-1.52735 0.66381,0.66381 -10.01436,12.64731 -14.25586,15.99805 -3.95465,3.12412 -12.65017,6.56646 -19.61133,7.76367 -7.0179,1.20698 -8.13993,2.14084 -4.75,3.95508 1.1,0.5887 2,1.46002 2,1.93555 0,1.61425 -13.10838,13.55323 -17.31445,15.76953 -2.30134,1.21265 -5.79457,2.2252 -7.76172,2.25 l -3.57617,0.0449 6.36719,-18.75 c 3.50187,-10.3125 7.46723,-23.025 8.8125,-28.25 3.79558,-14.74197 4.82348,-18 5.67969,-18 1.08539,0 0.99812,3.33334 -0.16797,6.40039 -0.5904,1.55276 -0.60217,2.75067 -0.0312,3.10352 1.82111,1.12551 12.09238,-2.37548 17.5,-5.96485 3.02255,-2.00626 7.86842,-4.46348 10.76757,-5.46094 11.40834,-3.92504 21.72461,-10.46082 21.72461,-13.76367 0,-2.1397 -2.71785,-1.49431 -3.31445,0.78711 -0.30213,1.15533 -0.91862,1.87219 -1.36914,1.59375 -0.45052,-0.27844 -4.15128,0.58026 -8.22461,1.9082 -4.07333,1.32795 -7.63865,2.18361 -7.92187,1.9004 -0.28322,-0.28322 1.30568,-2.07351 3.53125,-3.97852 5.30329,-4.53936 6.69547,-9.67568 5.29687,-19.53711 -1.14454,-8.07005 -2.50895,-11.1548 -6.92383,-15.63086 -5.73263,-5.81207 -14.99143,-8.53178 -23.5625,-6.92383 -6.07111,1.13894 -6.54048,4.04434 -2.1582,13.38282 2.01904,4.30251 4.77371,12.06723 6.12109,17.2539 3.98938,15.35693 3.98479,15.34761 6.99024,16.80664 2.61109,1.26758 2.68866,1.45921 0.98242,2.41406 -3.84574,2.1522 -15.85656,2.08399 -23.14844,-0.13085 -9.13518,-2.77473 -12.95907,-7.19245 -17.21289,-19.87891 -3.56166,-10.62215 -2.28801,-18.46699 3.96485,-24.43164 3.48776,-3.327 5.14437,-3.96321 18.63867,-7.14649 10.32494,-2.43563 17.11442,-3.51819 23.50976,-3.42968 z m 180.26953,0.69336 c -0.68651,0.0444 -0.45154,2.3952 0.61524,7.02539 0.9286,4.0301 0.82406,4.66607 -1.02344,6.16211 -1.9016,1.53982 -3.01195,5.47736 -1.31055,4.64843 0.4125,-0.20099 1.99106,-0.98689 3.50586,-1.74609 3.4415,-1.72483 4.04981,-1.12046 4.15821,4.12891 0.0842,4.0769 -0.0188,4.21424 -3.76758,5.00976 -2.1197,0.44982 -5.1141,1.71384 -6.6543,2.81055 -3.7039,2.63741 -6.28669,2.52336 -2.74219,-0.12109 2.739,-2.04357 3.599,-3.88477 1.8125,-3.88477 -0.5166,0 -3.0206,1.8 -5.5625,4 -5.7914,5.01242 -8.41751,5.08936 -17.06835,0.5 -6.62767,-3.51605 -9.83119,-4.27876 -10.875,-2.58984 -0.30928,0.50036 -0.3263,1.51286 -0.0371,2.25 0.51538,1.31367 10.49111,8.01478 19.56054,13.13867 4.67617,2.64183 7.59644,5.35862 6.71094,6.24414 -1.0208,1.02083 -11.69865,0.87265 -23.29102,-0.32227 -20.51122,-2.11425 -20.78704,-2.16716 -19.41992,-3.81445 1.5516,-1.86957 0.63484,-2.76695 -1.97851,-1.9375 -4.80294,1.52439 -9.81171,14.53125 -5.59571,14.53125 0.97311,0 3.17102,1.68372 4.88282,3.74023 13.57542,16.30875 18.53939,19.34665 32.75976,20.04493 16.88532,0.82913 17.90195,0.4445 32.31445,-12.17774 3.07241,-2.69076 5.83166,-4.64687 6.13086,-4.34765 0.7892,0.78924 -5.75406,9.12667 -13.72656,17.49023 l -6.91211,7.25 -11.72656,-0.0215 c -12.3407,-0.0231 -16.31505,-1.0557 -23.35742,-6.07031 -1.64172,-1.16901 -3.228,-1.88333 -3.52539,-1.58593 -0.82322,0.82321 2.91666,5.54691 4.93164,6.22851 0.97715,0.33054 2.53146,1.75156 3.45312,3.1582 0.92167,1.40664 3.04648,3.18356 4.72266,3.94727 2.314,1.05433 6.26907,1.2677 16.42773,0.88672 12.3531,-0.46329 13.63179,-0.69472 16.67969,-3.01953 5.5536,-4.23591 12.45748,-15.33445 15.01758,-24.14063 0.9003,-3.09707 2.43541,-7.03678 3.41211,-8.75586 0.9766,-1.71908 2.05157,-4.32198 2.38867,-5.7832 0.5898,-2.55688 0.41559,-2.68297 -4.63281,-3.36133 -7.3003,-0.98093 -8.30401,-1.66597 -5.78321,-3.94726 1.1207,-1.01427 2.03711,-2.4497 2.03711,-3.18946 0,-2.12285 1.62021,-1.5745 3.40821,1.1543 1.637,2.49831 3.99926,3.26983 5.00976,1.63477 0.6936,-1.12221 -6.96157,-23.94254 -8.73437,-26.03711 -0.7438,-0.87867 -3.53317,-5.53516 -6.19727,-10.34766 -3.27744,-5.92045 -5.23952,-8.83347 -6.01758,-8.7832 z m -191.08203,7.0332 c 5.54593,0 11.74637,3.09125 16.26758,8.10937 2.39246,2.6554 4.3328,8.71384 4.3418,13.5586 0.005,2.99623 -0.26815,3.22556 -5.04492,4.25 -2.77707,0.59557 -6.37707,1.08203 -8,1.08203 -2.74694,0 -2.95118,0.2608 -2.95118,3.77734 0,2.07763 0.71014,4.79202 1.57813,6.03125 1.32813,1.89617 2.15993,2.15002 5.25,1.60547 3.38836,-0.59711 3.55162,-0.51867 2.10352,1.00391 -1.76838,1.85929 -8.40243,3.2617 -9.19336,1.94336 -0.28384,-0.47311 -1.04506,-3.56133 -1.69141,-6.86133 -1.64359,-8.39145 -4.82193,-17.99201 -8.18555,-24.7207 -4.43185,-8.86563 -3.91647,-9.7793 5.52539,-9.7793 z m 155.42969,4.50781 c -1.70913,-0.0333 -2.03118,1.22854 0.32227,2.87696 2.55741,1.79127 5.86132,2.15206 5.86132,0.64062 0,-0.53588 -1.40009,-1.69805 -3.11328,-2.58398 -1.22986,-0.63599 -2.29343,-0.91848 -3.07031,-0.9336 z m -13.69336,2.73633 c -0.59362,0.0321 -1.95949,0.70603 -4.08008,2.10937 -2.19939,1.4555 -5.04319,2.64649 -6.31836,2.64649 -4.20216,0 -13.72461,12.00488 -13.72461,17.30273 0,1.41178 0.44018,3.72202 0.97657,5.13282 0.53639,1.41081 1.44383,2.56445 2.01758,2.56445 1.2305,0 13.00585,-17.63925 13.00585,-19.48242 0,-0.69476 2.05937,-3.16056 4.57618,-5.48047 3.37972,-3.11532 4.53624,-4.84641 3.54687,-4.79297 z m -386.33008,0.55273 c 4.21128,0.59025 5.82075,20.65863 1.77344,25.13086 -3.20906,3.54598 -4.16899,2.48086 -6.0332,-6.67773 -0.97957,-4.8125 -1.9901,-9.69233 -2.24414,-10.84375 -0.53718,-2.43475 3.23492,-7.14528 6.08789,-7.60352 0.14115,-0.0227 0.28017,-0.0249 0.41601,-0.006 z m 390.02344,0.20313 c -1.38024,0 -0.90153,2.34616 1.17383,5.75 1.08986,1.7875 2.47617,3.25 3.08008,3.25 0.60392,0 0.93596,-0.3375 0.73828,-0.75 -2.53533,-5.29044 -4.32603,-8.25 -4.99219,-8.25 z m -120.91992,0.0137 c -0.60868,0.16003 -0.25099,2.17505 1.1289,5.80664 1.08696,2.86062 1.97461,6.24601 1.97461,7.52344 0,1.27743 0.30777,2.63003 0.6836,3.00586 0.37584,0.37583 1.12717,0.24197 1.66797,-0.29883 1.36119,-1.36119 -0.9732,-11.36249 -3.33008,-14.26953 -1.04708,-1.2915 -1.75979,-1.8636 -2.125,-1.76758 z m 254.14258,3.51367 c -0.75554,0.0381 -1.03907,0.54159 -1.03907,1.39649 0,0.54207 1.98647,2.46856 4.41407,4.28125 6.3341,4.72969 47.26071,33.06101 49.88281,34.53125 3.0145,1.69018 3.70312,1.57571 3.70312,-0.61133 0,-1.21727 -2.7189,-3.72911 -7.75,-7.16211 -4.2625,-2.90854 -10.675,-7.3823 -14.25,-9.94141 -23.52375,-16.83914 -32.26259,-22.63022 -34.96093,-22.49414 z m -358.09766,5.64063 c 2.26361,0.0553 3.21842,2.98462 3.32422,9.44336 0.11822,7.21697 -2.17513,45.1988 -4.73242,78.38867 -0.82636,10.725 -1.50958,27.14124 -1.51758,36.48047 -0.008,9.33922 -0.51783,24.41422 -1.13281,33.5 -0.61498,9.08577 -1.51498,16.9482 -2,17.4707 -0.96669,1.04094 -0.96196,-52.24309 0.01,-126.41406 l 0.60742,-46.46289 2.72461,-1.52735 c 1.06276,-0.596 1.96227,-0.89732 2.7168,-0.8789 z M 300.85547,410.75 c 5.78234,-0.1167 6.53455,1.86752 5.14062,10.85156 -0.58719,3.78453 -1.07403,13.76982 -1.08203,22.18946 -0.008,8.41965 -0.5309,24.30859 -1.16406,35.30859 -0.63317,11 -1.03363,25.91878 -0.88867,33.15234 0.14496,7.23356 -0.0361,14.09606 -0.40235,15.25 -0.88743,2.79602 -1.62166,2.65736 -5.09375,-0.96679 l -2.9375,-3.06641 0.0156,-56.18359 0.0156,-56.18555 5.17383,-0.29883 c 0.43107,-0.025 0.83717,-0.043 1.22266,-0.0508 z m -103.10352,4.84961 c 0.3962,0 1.45259,2.5875 2.34766,5.75 0.89507,3.1625 1.97438,6.875 2.40039,8.25 0.69155,2.23204 0.5988,2.35668 -0.86523,1.15625 -0.90189,-0.7395 -2.15859,-1.1724 -2.79297,-0.96094 -0.63438,0.21146 0.4759,1.62796 2.46679,3.14649 4.68794,3.57566 4.69408,5.08275 0.0156,4.20507 -2.74435,-0.51484 -3.50072,-0.3635 -3.16797,0.63477 0.24041,0.72123 3.99867,2.2229 8.35352,3.33789 17.17973,4.39861 38.40566,22.77089 42.93164,37.16016 2.55479,8.12234 1.39216,14.07416 -3.84961,19.69726 -3.8808,4.16311 -8.92269,6.69646 -10.39453,5.22461 -0.35115,-0.35115 0.93854,-2.31673 2.86718,-4.36914 7.19824,-7.66016 8.82487,-12.36263 5.44336,-15.74414 -3.86182,-3.86182 -19.31346,-10.79039 -24.29492,-10.89453 -4.1768,-0.0873 -4.71358,0.23437 -9.8125,5.90625 -2.96665,3.3 -5.41219,6.9735 -5.43359,8.16211 -0.0534,2.95981 4.45412,6.50722 14.50976,11.41992 4.64875,2.27115 8.45117,4.53117 8.45117,5.02344 0,1.28289 -1.25265,1.10499 -3.54687,-0.50196 -1.09636,-0.7679 -6.66534,-3.74377 -12.375,-6.61328 -23.79562,-11.95905 -32.50002,-18.58314 -43.35156,-32.99023 -2.27845,-3.025 -6.07188,-7.56821 -8.42969,-10.09766 -4.09063,-4.38841 -4.20503,-4.67563 -2.48047,-6.23633 0.99402,-0.89958 5.15503,-2.47139 9.24609,-3.49414 9.0597,-2.2649 11.98667,-3.73045 19.23243,-9.63281 4.16925,-3.39624 6.42478,-6.25808 8.71679,-11.06055 1.70046,-3.56299 3.41631,-6.47851 3.8125,-6.47851 z m 305.03125,4 c -1.84407,0 -0.28868,13.24937 2.19727,18.71875 2.98108,6.5587 3.51495,3.93357 1.01367,-4.98047 -1.13655,-4.05043 -2.06641,-8.79836 -2.06641,-10.55078 0,-1.75241 -0.51476,-3.1875 -1.14453,-3.1875 z m -31.06836,0.18164 c 0.14483,0.0826 0.19292,0.53211 0.19922,1.38086 0.0277,3.73475 4.06153,17.60001 6.49219,22.3125 1.31203,2.54373 4.11186,6.42677 6.2207,8.62891 2.10884,2.20214 5.53695,6.23592 7.61914,8.96289 3.22563,4.2243 3.70259,5.48173 3.2168,8.49609 -0.64353,3.99323 1.42788,7.0804 12.78516,19.05273 3.39922,3.5833 7.30468,7.80556 8.67968,9.38282 l 2.5,2.86718 -3.64257,-0.6582 c -3.01605,-0.54481 -4.16691,-0.21726 -6.6836,1.90039 -3.41348,2.87226 -4.747,6.3163 -5.74023,14.81446 -0.5892,5.04133 -1.02771,5.95336 -3.26172,6.80273 -1.41897,0.53949 -4.82164,2.59339 -7.5625,4.5625 -4.56349,3.27855 -5.24775,3.48291 -8.11719,2.44531 -1.7234,-0.62319 -4.49769,-1.13281 -6.16406,-1.13281 -1.66638,0 -4.48017,-0.50472 -6.25391,-1.12305 -2.34773,-0.81847 -3.52446,-0.82514 -4.32617,-0.0234 -1.70124,1.70124 5.21147,4.14649 11.7207,4.14649 3.04267,0 5.49246,0.3375 5.44336,0.75 -0.0491,0.4125 -3.31159,3.47457 -7.25,6.80273 -4.5743,3.86553 -8.19068,7.95293 -10.01172,11.31836 -3.5833,6.6223 -11.8116,29.26179 -15.2539,41.97266 -5.15705,19.0427 -5.82059,16.60996 -4.97461,-18.21094 0.68933,-28.37345 2.75021,-58.90853 4.59766,-68.13281 0.55078,-2.75 2.3799,-12.425 4.0664,-21.5 1.6865,-9.075 4.60707,-22.63619 6.49024,-30.13672 1.88317,-7.50052 3.42382,-14.36302 3.42382,-15.25 0,-0.88697 0.38859,-1.61328 0.86329,-1.61328 0.4747,0 1.09603,2.8125 1.3789,6.25 1.00271,12.18533 9.17624,30.39906 17.18555,38.29297 7.96554,7.85076 21.03975,15.84602 24.90625,15.23047 1.64669,-0.26215 0.47381,-1.21602 -4.88281,-3.97071 -17.1307,-8.80962 -27.44021,-21.50806 -33.01563,-40.66406 -1.96658,-6.75678 -2.43232,-10.59584 -2.41992,-20 0.008,-6.40097 0.45121,-12.31367 0.98437,-13.13867 0.39908,-0.61753 0.64229,-0.90097 0.78711,-0.81836 z m -331.47265,1.81836 c 1.88497,0 6.19623,8.87932 7.16211,14.75 0.74876,4.55101 -0.16108,5.39478 -2.69922,2.5 -4.29749,-4.90134 -7.49264,-17.25 -4.46289,-17.25 z m 230.95117,4.0918 c -1.00285,-0.0319 -1.26563,0.39784 -1.26563,1.27343 0,4.29538 9.54641,10.51421 18,11.72461 5.96491,0.85407 9,1.00913 9,0.46289 0,-0.24589 -1.125,-2.56242 -2.5,-5.14843 -1.375,-2.58602 -2.5,-5.32365 -2.5,-6.08399 0,-2.28574 -2.79686,-2.64261 -6.59179,-0.8418 -3.30576,1.5687 -3.9448,1.57632 -8.42969,0.10938 -2.96563,-0.97001 -4.71004,-1.46416 -5.71289,-1.49609 z m 164.19531,8.40039 c 1.37886,-0.0713 6.58123,0.37557 12.57813,1.09765 6.85359,0.82524 21.37283,1.56117 32.26367,1.63477 10.8908,0.0736 20.03366,0.50997 20.31836,0.9707 0.8894,1.43901 -13.8009,7.67929 -20.6211,8.75977 -11.90884,1.88664 -22.12149,0.60801 -35.57812,-4.45508 -3.87035,-1.45623 -10.30517,-6.94874 -9.30859,-7.94531 0.032,-0.032 0.15067,-0.0523 0.34765,-0.0625 z m -354.3457,19.50781 c -1.0825,0 -4.11524,6.19175 -4.11524,8.40234 0,2.68714 1.54068,1.78821 3.31641,-1.93554 1.85189,-3.88345 2.17076,-6.4668 0.79883,-6.4668 z m 9.82617,1.25977 c -3.20988,-0.12712 -8.82595,6.76612 -10.31836,12.99023 -0.98261,4.09799 1.99964,3.59261 3.76758,-0.63867 0.77894,-1.86426 3.08354,-5.23492 5.12109,-7.49024 3.12126,-3.45486 3.44174,-4.20123 2.03711,-4.74023 -0.19067,-0.0732 -0.39343,-0.11262 -0.60742,-0.12109 z m 354.49024,0.74023 c 0.37127,0 3.85897,0.72589 7.75195,1.61133 5.25844,1.19598 10.65004,1.50999 20.9707,1.22656 13.4223,-0.36862 13.81524,-0.32101 11.61914,1.38086 -1.2502,0.96879 -3.84844,2.21308 -5.77344,2.76562 -6.7588,1.93997 -24.01792,0.60926 -29.61132,-2.2832 -2.96087,-1.53112 -6.30293,-4.70117 -4.95703,-4.70117 z m -151.11524,3.0625 c -0.10349,0.019 -0.1704,0.0661 -0.19726,0.14258 -0.43302,1.23276 2.71989,3.94694 7.88085,6.7832 7.59857,4.17588 6.58886,1.58992 -1.5,-3.8418 -2.95381,-1.9835 -5.45917,-3.21669 -6.18359,-3.08398 z m 13.74414,0.9375 c -0.51754,0 -1.22063,0.45 -1.56055,1 -0.33992,0.55 0.084,1 0.94141,1 0.85746,0 1.55859,-0.45 1.55859,-1 0,-0.55 -0.42191,-1 -0.93945,-1 z m -252.84961,10.28906 c 1.67529,-0.0797 4.67173,2.46967 10.04688,7.91797 8.07763,8.18755 8.70331,8.58738 31.24218,19.95117 16.17513,8.15527 22.96109,12.0684 22.86719,13.1875 -0.0734,0.87521 -0.41479,2.70948 -0.75781,4.07617 -0.90925,3.62274 3.08163,6.84041 13.86328,11.17969 11.83105,4.76165 15.79563,4.90118 19.56055,0.6875 2.69482,-3.01603 4.95069,-8.70897 4.96289,-12.53125 0.005,-1.53737 -6.31593,-7.03109 -9.19336,-7.99023 -1.3333,-0.44443 -0.36586,-3.49255 2.13867,-6.74219 1.9063,-2.47342 1.90782,-2.47359 4.09961,-0.5 4.33414,3.90267 7.94117,11.63132 7.95117,17.03516 0.009,4.64145 -0.38472,5.49113 -4.74219,10.28515 -2.6291,2.89249 -6.09359,5.59358 -7.75976,6.05078 -4.8492,1.33061 -15.21064,-1.85038 -30.49024,-9.36132 -4.125,-2.02771 -10.22451,-4.68917 -13.55664,-5.91602 -3.64499,-1.34204 -11.13205,-5.9119 -18.79297,-11.4707 -7.00332,-5.08164 -15.96399,-11.14322 -19.9121,-13.47071 -4.26908,-2.51672 -8.52612,-6.00009 -10.50586,-8.5957 -2.83652,-3.71894 -3.28602,-5.04603 -3.03125,-8.96484 0.20248,-3.11464 0.70676,-4.76613 2.00976,-4.82813 z m 494.94141,4.87695 c 0.19816,-0.0297 0.40614,0.0604 0.62304,0.27735 0.3374,0.33735 0.74711,6.42343 0.90821,13.52539 0.2558,11.26836 -0.37282,19.92491 -3.54492,48.83594 -0.3882,3.53799 -1.28402,6.66887 -2.04102,7.13672 -2.3041,1.42399 -20.07062,0.79123 -31.51562,-1.1211 -6.0051,-1.00339 -11.14202,-2.04826 -11.41602,-2.32226 -1.5262,-1.5262 2.86268,-1.95026 20.39258,-1.97266 l 19.4414,-0.0254 v -3.92773 c 10e-5,-2.16095 0.42572,-5.31096 0.94532,-7 1.9439,-6.31898 4.07614,-26.46941 3.99414,-37.75 -0.0681,-9.38032 0.82576,-15.44838 2.21289,-15.65626 z m -429.56446,0.33204 c 0.81558,0.0477 1.85526,0.35461 3.47657,0.85546 6.54837,2.02294 18.05451,7.78975 18.65234,9.34766 0.57352,1.49456 -3.49705,7.83325 -8.33398,12.98047 -1.71494,1.82496 -3.5227,3.31836 -4.01758,3.31836 -0.49489,0 -2.69263,-1.21652 -4.88281,-2.70508 -2.19017,-1.48856 -6.47164,-3.91388 -9.51563,-5.38867 -8.23386,-3.98923 -8.80869,-5.06097 -5.16211,-9.63281 1.65548,-2.07552 4.31759,-5.01418 5.91602,-6.53125 1.77009,-1.68002 2.50789,-2.32361 3.86718,-2.24414 z m 257.75782,16.94336 c -0.21405,0.0233 -0.30339,0.2967 -0.3125,0.79882 -0.0449,2.47132 9.79945,13.69395 13.95117,15.9043 5.64546,3.00561 5.86371,2.08052 0.57031,-2.42969 -4.71096,-4.01395 -5.90607,-5.23968 -11.9082,-12.21484 -1.24227,-1.44366 -1.94403,-2.0975 -2.30078,-2.05859 z m 43.22265,11.38476 c 1.05787,0.12045 -0.94017,1.86006 -5.81836,4.40234 -8.11284,4.22804 -7.75,4.08981 -7.75,2.97852 0,-1.47881 2.13609,-2.93432 8.32618,-5.67187 2.87236,-1.2703 4.60746,-1.78126 5.24218,-1.70899 z m 10.00196,0.44141 c 0.82084,-0.0377 3.55561,0.61323 6.60156,1.59179 7.70895,2.47661 30.56712,4.64875 39.39648,3.74414 4.573,-0.4685 6.43164,-0.3258 6.43164,0.49415 0,1.44122 -16.16807,22.90234 -17.2539,22.90234 -0.43703,0 -1.22089,1.123 -1.74219,2.49414 -0.52131,1.37114 -3.35777,5.98364 -6.30273,10.25 -2.94496,4.26636 -9.59473,14.61799 -14.77735,23.00391 -5.18262,8.38591 -9.70811,15.248 -10.05664,15.25 -0.34853,0.002 -0.85735,-4.38555 -1.13086,-9.74805 -0.49141,-9.63475 -2.26742,-16.24108 -8.53125,-31.75 -1.11069,-2.75 -2.60248,-6.44592 -3.3164,-8.21289 -1.29511,-3.20546 -1.28385,-3.2267 5.40625,-9.62695 6.40798,-6.13034 6.70507,-6.62288 6.70507,-11.10352 0,-2.57864 -0.48551,-5.59608 -1.08007,-6.70703 -0.59456,-1.11095 -0.85605,-2.24552 -0.58008,-2.52149 0.0345,-0.0345 0.1132,-0.0552 0.23047,-0.0605 z m -175.98828,0.0488 c 0.99475,0.19365 -0.36732,7.78727 -3.08594,16.68359 -1.42863,4.675 -3.22622,11.23971 -3.9961,14.58789 -0.76988,3.34819 -2.36136,8.52319 -3.53515,11.5 -1.17378,2.97682 -3.47449,11.03711 -5.11328,17.91211 -1.6388,6.875 -4.268,16.325 -5.8418,21 -1.57381,4.675 -5.37823,16.6 -8.45508,26.5 -3.07684,9.9 -6.56295,20.9189 -7.74804,24.48633 -1.1851,3.56742 -2.23012,7.72783 -2.32032,9.24414 -0.25097,4.21875 -5.48633,9.21735 -5.48633,5.23828 0,-2.41552 -2.87451,-2.89157 -5.13085,-0.84961 -1.61878,1.46498 -3.65599,1.86309 -9.56055,1.87109 l -7.50195,0.01 -1.84571,-3.81836 c -1.0147,-2.10016 -1.61583,-4.41516 -1.33594,-5.14453 0.27988,-0.72938 -1.27939,-5.53619 -3.46484,-10.68164 -2.18546,-5.14546 -4.75115,-12.05547 -5.70117,-15.35547 -1.66005,-5.76634 -9.36919,-26.14901 -17.00586,-44.96484 l -3.63867,-8.9668 2.20508,-1.7832 c 1.21199,-0.98141 2.53571,-1.78516 2.94335,-1.78516 1.19464,0 6.56048,12.42155 11.87891,27.5 4.8015,13.61286 7.1294,19.93803 14.48438,39.35156 4.3296,11.42802 7.8075,16.89423 11.31054,17.77344 3.13594,0.78707 12.86754,-3.95932 14.60938,-7.125 0.60524,-1.1 2.54905,-6.95 4.32031,-13 1.77126,-6.05 5.309,-18.13574 7.86133,-26.85742 2.55234,-8.72168 5.12933,-18.17168 5.72656,-21 0.59723,-2.82832 1.58099,-6.04258 2.1875,-7.14258 0.6065,-1.1 1.62519,-3.8 2.26172,-6 0.63653,-2.2 2.58772,-8.93462 4.33594,-14.9668 1.74823,-6.03218 3.65215,-11.53911 4.23242,-12.23828 0.58026,-0.69918 2.10748,-4.76455 3.39258,-9.0332 3.19047,-10.59755 7.34332,-21.5518 8.63086,-22.76172 0.15442,-0.14512 0.28381,-0.20363 0.38672,-0.18359 z m 168.51757,1.58007 c 0.7579,-0.0312 0.63512,1.71846 -0.55078,4.01172 -0.87968,1.70111 -1.86114,3.0918 -2.18164,3.0918 -0.8134,0 0.57571,-5.29651 1.6875,-6.43359 0.44156,-0.45161 0.79229,-0.65953 1.04492,-0.66993 z m 4.00586,0.17188 c 0.56869,0.0624 0.91096,0.79728 0.71485,2.17187 -0.17575,1.23189 -1.10782,2.39077 -2.07032,2.57422 -2.01707,0.38444 -2.15787,-0.18257 -0.71484,-2.8789 0.70574,-1.31868 1.50163,-1.92959 2.07031,-1.86719 z m -282.99609,2.92578 c 3.50756,0.18684 8.89062,3.58096 8.89062,6.63672 0,2.66834 -2.31165,7.80922 -4.77539,10.61914 -2.2341,2.54802 -6.74402,2.07357 -14.78906,-1.55859 -10.43063,-4.70921 -11.87043,-5.84414 -11.09961,-8.75 1.38385,-5.21682 2.07638,-5.54859 7.52344,-3.58985 4.5602,1.63982 5.22012,1.66006 7.99219,0.22656 1.66201,-0.85946 3.3022,-2.0164 3.64453,-2.57031 0.48345,-0.78224 1.44409,-1.07595 2.61328,-1.01367 z m 273.55859,0.006 c 0.931,0 0.97599,0.72693 0.1836,3 -0.5752,1.65 -1.63791,3 -2.36133,3 -1.04643,0 -1.08449,-0.61328 -0.18359,-3 0.62281,-1.65 1.68551,-3 2.36132,-3 z m -4.91992,2.02539 c 0.19055,0.015 0.20505,0.52056 0.2207,1.5332 0.0175,1.13238 -0.62803,2.93238 -1.43554,4 -1.4443,1.90947 -1.4687,1.90811 -1.5,-0.11718 -0.0175,-1.13238 0.62803,-2.93238 1.43554,-4 0.72215,-0.95474 1.08875,-1.43098 1.2793,-1.41602 z m -128.34375,0.043 c 0.95934,-0.0473 1.5957,0.75843 1.5957,2.36719 0,7.30576 4.12093,9.5939 25.25,14.02539 3.94876,0.82819 3.40614,3.26267 -1,4.48633 -5.76771,1.60176 -7.49017,1.38432 -6.77929,-0.85547 0.5349,-1.68533 -0.34205,-2.11118 -7.5293,-3.66407 -4.47504,-0.96689 -9.5375,-2.70337 -11.25,-3.85742 -3.86596,-2.60528 -5.38095,-8.14202 -2.96094,-10.82031 0.98752,-1.09291 1.92768,-1.64488 2.67383,-1.68164 z m 140.0625,2.93164 c 0.84328,0 1.5332,0.39625 1.5332,0.87891 0,1.37339 -2.11818,2.79356 -7,4.69726 -2.475,0.96514 -5.625,2.51228 -7,3.4375 -2.81374,1.89333 -6.6135,3.04079 -7.41601,2.23828 -1.09099,-1.09099 16.86374,-11.25195 19.88281,-11.25195 z m -17.33008,1 c 0.49633,0 0.60504,1.2375 0.24219,2.75 -0.79822,3.32725 -1.01798,3.64306 -1.73047,2.49023 -0.75978,-1.22935 0.37957,-5.24023 1.48828,-5.24023 z m -243.13672,6 4.25,0.0156 c 9.20111,0.032 23.82736,5.08688 27.96289,9.66407 2.3963,2.65222 4.78711,8.71516 4.78711,12.13867 0,3.82062 -1.82148,8.90134 -3.41211,9.51172 -0.98569,0.37825 -1.16941,-1.16555 -0.80664,-6.81836 0.54539,-8.49833 0.21525,-8.87414 -8.82226,-10 -5.39403,-0.67198 -16.59104,0.7219 -18.125,2.25586 -0.41787,0.41787 -1.07066,3.40896 -1.45117,6.64648 -0.87305,7.42833 0.34516,8.53888 9.55859,8.70508 3.60738,0.0651 7.90859,0.46101 9.55859,0.88086 2.82543,0.71913 2.76724,0.76161 -1,0.72461 -2.2,-0.0216 -10.75,-0.36248 -19,-0.75781 -15.79093,-0.75669 -21.9614,-2.05761 -32.80078,-6.91602 -5.84009,-2.61763 -16.89565,-6.36856 -26.44336,-8.9707 -4.13485,-1.12691 -9.25586,-5.39401 -9.25586,-7.71289 0,-4.73142 16.20129,-2.15593 33.66211,5.35156 5.0582,2.17478 6.2623,3.15525 6.72461,5.4668 0.30975,1.54874 1.03319,2.81445 1.60743,2.81445 0.62811,0 0.78193,-1.04645 0.38476,-2.62891 -0.49107,-1.95658 -0.31702,-2.51712 0.68359,-2.18359 0.73985,0.24662 1.73989,1.99327 2.22071,3.88086 1.65251,6.48731 3.18532,6.28064 2.74218,-0.36914 -0.15796,-2.37055 0.17169,-2.76814 2.14454,-2.59375 8.54793,0.75559 14.81172,-5.31025 14.82422,-14.35547 z m 232.94336,7 c 0.93297,-0.0381 2.35735,0.79966 3.31836,2.25 0.81998,1.2375 4.84433,5.99747 8.94336,10.57617 4.09903,4.57871 8.2313,9.64121 9.18164,11.25 0.95034,1.6088 1.31247,2.92383 0.80664,2.92383 -0.98279,0 -6.28909,-5.54924 -15.19336,-15.88867 -3.025,-3.51256 -6.0625,-6.96765 -6.75,-7.67774 -0.6875,-0.71009 -1.25,-1.77204 -1.25,-2.36132 0,-0.71072 0.38359,-1.04943 0.94336,-1.07227 z m 14.67969,1.33203 c 0.58265,-0.0278 1.64982,0.20141 2.73828,0.61524 1.88993,0.71855 2.63867,1.72097 2.63867,3.52929 0,2.72629 -0.90984,3.17061 -2.5,1.22266 -3.15193,-3.86113 -3.73621,-4.79504 -3.28125,-5.25 0.0693,-0.0693 0.21008,-0.10791 0.4043,-0.11719 z m -18.05469,2.03906 c 0.5112,-0.0781 1.3385,2.76019 1.83399,7.87891 0.35936,3.7125 0.4434,6.75 0.18554,6.75 -1.1601,0 -1.87103,-2.69722 -2.33203,-8.85352 -0.29121,-3.88892 -0.0851,-5.71465 0.3125,-5.77539 z m -3.60937,1.5 c 0.1755,0.0166 0.38127,0.13519 0.61328,0.36719 0.3138,0.31379 0.41603,2.07565 0.22852,3.91602 l -0.33985,3.3457 -0.82617,-3.32031 c -0.63589,-2.5609 -0.43628,-4.38051 0.32422,-4.3086 z m 38.69336,1.68164 c -0.24391,-0.002 -0.35731,0.29083 -0.45117,0.75196 -0.20208,0.99274 1.17864,4.14274 3.07031,7 1.89168,2.85726 4.19026,6.43281 5.10742,7.94531 1.75148,2.8884 4.39352,3.47772 7.6875,1.71484 2.92614,-1.56603 2.31654,-2.99064 -0.99609,-2.32812 -2.58795,0.51759 -3.25993,0.10311 -5.75,-3.54883 -6.03541,-8.85155 -7.93624,-11.52822 -8.66797,-11.53516 z m -30.93555,0.71094 c 0.73322,0.11567 2.04089,3.51127 2.85156,8.83789 0.58662,3.85441 0.74125,7.20867 0.34571,7.45313 -1.06107,0.65577 -2.85292,-5.13848 -3.55469,-11.49219 -0.37798,-3.42208 -0.14425,-4.87797 0.35742,-4.79883 z m -211.625,1.90625 c 1.81393,-0.006 3.42327,0.0802 4.39063,0.26172 l 3.51757,0.66016 v 6.41797 c 0,5.24546 -0.34038,6.60281 -1.86718,7.41992 -1.02768,0.55 -2.13572,0.73537 -2.46094,0.41015 -0.32522,-0.32522 -3.87459,-0.55451 -7.88867,-0.50781 -9.25814,0.1078 -10.30071,-0.52531 -9.9043,-6.01562 0.48937,-6.77774 1.30288,-7.56861 8.5957,-8.34961 1.78481,-0.19113 3.80327,-0.29052 5.61719,-0.29688 z m 99.22266,0.83008 c 2.82169,0 2.92078,0.10986 1.22265,1.35156 -1.60574,1.17414 -1.77508,2.31623 -1.28711,8.75 0.30867,4.06978 1.6995,12.12344 3.08985,17.89844 1.39035,5.775 4.10926,17.25 6.04101,25.5 1.93175,8.25 4.88657,20.75383 6.56641,27.78516 1.67984,7.03132 3.05273,14.11882 3.05273,15.75 0,4.3601 -1.75641,3.60892 -3.00781,-1.28516 -0.59768,-2.3375 -1.95,-6.32017 -3.0039,-8.85156 -1.05391,-2.53139 -3.08285,-10.36874 -4.50977,-17.41602 -1.42691,-7.04728 -3.45532,-15.3271 -4.50586,-18.39844 -2.72214,-7.95843 -6.82349,-27.96492 -7.99023,-38.97265 -1.12498,-10.61373 -0.58973,-12.11133 4.33203,-12.11133 z m 98.26562,0.0508 c 0.61807,-0.0765 1.68667,0.68021 2.99024,2.20117 1.06169,1.23874 5.38326,6.33762 9.60351,11.33008 4.22025,4.99246 10.29525,11.46609 13.5,14.38477 3.20475,2.91868 7.32571,7.0462 9.15821,9.17382 1.8325,2.12762 3.1825,4.26729 3,4.75391 -0.92931,2.47795 -38.83204,-37.33687 -38.83204,-40.79102 0,-0.66086 0.20924,-1.00686 0.58008,-1.05273 z m 18.50781,3.05078 c 0.1649,-0.10122 0.61291,0.30159 1.47852,1.125 1.21934,1.1599 1.91994,3.53658 2.13672,7.25 0.39457,6.75858 -1.21361,7.33415 -2.16016,0.77344 -0.37692,-2.6125 -0.93447,-5.875 -1.23828,-7.25 -0.26359,-1.19297 -0.38169,-1.79722 -0.2168,-1.89844 z m -28.44335,5.9375 c 0.67122,-0.0507 1.79291,0.9567 3.00781,2.86719 3.02247,4.753 34.95138,39.34545 41.46289,44.92187 2.13728,1.83036 3.88476,3.96786 3.88476,4.75 0,0.78215 -0.34323,1.42188 -0.76367,1.42188 -1.10196,0 -24.44994,-23.82071 -34.33203,-35.02734 -11.30935,-12.82519 -13.9043,-16.12003 -13.9043,-17.66407 0,-0.82708 0.2418,-1.23912 0.64454,-1.26953 z m 35.74804,2.96094 c 1.10492,0 1.60742,0.89999 1.60742,2.875 0,1.58125 0.28125,4.28125 0.625,6 0.37117,1.85587 0.21335,3.125 -0.38867,3.125 -0.55754,0 -1.3196,-1.6875 -1.69336,-3.75 -0.37377,-2.0625 -0.92168,-4.7625 -1.21875,-6 -0.39001,-1.62461 -0.093,-2.25 1.06836,-2.25 z m -209.39258,4.03711 c 0.76406,-0.0553 0.14306,23.41645 -1.13085,42.71289 -0.62636,9.4875 -1.50221,17.25 -1.94532,17.25 -2.04123,0 -2.44546,-4.22063 -2.77148,-28.88281 l -0.34961,-26.38477 2.84961,-2.33008 c 1.56683,-1.2817 3.07265,-2.34533 3.34765,-2.36523 z m 174.50586,1.28711 c 0.13592,-10e-4 0.31488,0.11689 0.54102,0.33984 0.64878,0.63965 1.31672,3.00215 1.48437,5.25 0.16765,2.24786 -0.10848,4.08594 -0.61328,4.08594 -0.50479,0 -0.94431,-0.3375 -0.97851,-0.75 -0.0342,-0.4125 -0.29093,-2.775 -0.56836,-5.25 -0.29011,-2.58805 -0.27299,-3.67142 0.13476,-3.67578 z m -3.60156,0.67578 c 0.49691,0 1.05941,2.25161 1.25,5.00195 0.35901,5.18097 -0.47061,6.67667 -1.52344,2.74805 -0.90495,-3.37678 -0.75054,-7.75 0.27344,-7.75 z m 44.50195,1 c 0.91407,0 1.22469,0.70014 0.88477,2 -0.28766,1.1 -0.9204,2 -1.40625,2 -0.48585,0 -0.88477,-0.9 -0.88477,-2 0,-1.1 0.63274,-2 1.40625,-2 z m 4.15821,4 c 0.79042,0 1.46329,0.5625 1.49609,1.25 0.0328,0.6875 0.41178,3.3875 0.8418,6 0.43001,2.61266 0.39246,4.75 -0.084,4.75 -1.08156,0 -2.34445,-3.35196 -3.10742,-8.25 -0.44624,-2.86473 -0.24434,-3.75 0.85352,-3.75 z m -38.89063,2.44336 c 0.0308,0.005 0.0634,0.0233 0.0977,0.0566 0.56525,0.55 1.3448,4.7125 1.73242,9.25 0.68162,7.9792 0.39467,10.03435 -0.92187,6.60351 -1.16352,-3.03209 -1.86166,-16.06753 -0.90821,-15.91015 z m 35.32617,0.55664 c 0.55,0 1,0.45 1,1 0,0.55 -0.45,1 -1,1 -0.55,0 -1,-0.45 -1,-1 0,-0.55 0.45,-1 1,-1 z m -50.25,0.0391 c 0.98478,0.0498 8.25,10.53144 8.25,11.90235 0,2.31528 -1.92782,0.80877 -5.37695,-4.19922 -3.46134,-5.0257 -4.49136,-7.78503 -2.87305,-7.70313 z m 156.89258,0.22071 c 0.94116,0.16021 0.0793,2.9641 -2.79687,7.24023 -10.2583,15.25138 -14.08709,19.93 -27.21289,33.25 -9.966,10.1135 -14.70929,14.25 -16.33789,14.25 -4.5921,0 -3.17694,-1.81603 19.85546,-25.49414 12.57281,-12.92515 19.83619,-21.09592 19.86719,-22.34961 0.009,-0.36047 1.3716,-2.1952 3.0293,-4.07617 1.81684,-2.06145 3.03101,-2.91645 3.5957,-2.82031 z m -137.68359,2.625 c 0.17802,10e-4 0.40689,0.14712 0.6875,0.42773 0.5887,0.5887 3.17607,13.47408 3.30078,16.4375 0.0289,0.6875 -0.39727,1.25 -0.94727,1.25 -0.55,0 -0.99925,-0.1125 -1,-0.25 -7.5e-4,-0.1375 -0.67022,-4.04432 -1.48632,-8.68164 -1.13655,-6.45826 -1.32612,-9.18898 -0.55469,-9.18359 z m -8.16797,0.54492 c 0.0672,0.003 0.13606,0.0252 0.20898,0.0703 0.55,0.33992 1,1.71801 1,3.06055 0,1.34254 -0.45,2.43945 -1,2.43945 -0.55,0 -1,-1.37613 -1,-3.05859 0,-1.56162 0.32044,-2.53425 0.79102,-2.51172 z m 14.11328,6.4375 c 0.18897,-0.009 0.42354,0.12666 0.70117,0.40429 0.53018,0.53018 3.39153,13.99834 3.39453,15.97852 0.002,1.02471 -1.75776,0.95088 -2.4082,-0.10156 -0.28992,-0.4691 -1.03192,-4.10454 -1.64844,-8.07813 -0.84383,-5.43865 -0.85791,-8.16608 -0.0391,-8.20312 z m -28.94726,3.20703 c 1.01573,0.0605 2.6581,2.01878 5.76562,6.7207 2.07409,3.13827 8.52572,10.65508 14.33594,16.70508 19.29195,20.08814 22.94702,24.16235 22.27539,24.83398 -0.36624,0.36623 -1.1658,0.66602 -1.77539,0.66602 -1.21735,0 -13.9168,-12.72097 -17.47071,-17.5 -1.22702,-1.65 -4.57068,-5.475 -7.42968,-8.5 -11.80575,-12.49121 -17.95334,-21.03689 -16.31446,-22.67578 0.17773,-0.17773 0.37888,-0.26397 0.61329,-0.25 z m 13.44921,0.97851 c 0.15565,-0.003 0.35755,0.0358 0.60743,0.11914 1.82465,0.60821 34.98632,34.25495 34.98632,35.49805 0,0.6667 -0.40291,1.46254 -0.89648,1.76758 -0.74566,0.46084 -16.18077,-15.16657 -31.49023,-31.88281 -3.10578,-3.39116 -4.29658,-5.47914 -3.20704,-5.50196 z m 21.26758,3.07422 c 0.45008,-0.20754 1.30617,2.30645 1.99414,7.12305 0.56956,3.9875 0.91408,7.40133 0.76563,7.58594 -0.72773,0.90494 -2.22873,-3.95642 -2.80469,-9.08594 -0.41033,-3.65442 -0.30514,-5.46162 0.0449,-5.62305 z m -37.97265,4.24024 c 0.0571,10e-4 0.11613,0.0213 0.17968,0.0605 0.48433,0.29933 1.09692,1.67547 1.36133,3.0586 0.46541,2.43464 -0.20267,3.2192 -1.57422,1.84765 -0.93816,-0.93815 -0.82277,-4.98278 0.0332,-4.96679 z m 42.60937,0.84375 c 0.15814,-0.0279 0.39783,0.1095 0.7168,0.30664 0.56459,0.34893 0.9289,1.16256 0.81054,1.80859 -0.20095,1.09685 0.67487,5.91111 1.80469,9.92383 0.27101,0.9625 0.058,1.75 -0.47265,1.75 -0.5306,0 -1.45994,-2.84948 -2.06641,-6.33203 -1.01249,-5.81432 -1.26739,-7.37348 -0.79297,-7.45703 z m -37.91016,2.1582 c 0.77834,0.0727 1.36873,2.30182 2.15626,7.88086 1.10978,7.86192 -0.91378,5.42152 -2.50196,-3.01758 -0.44183,-2.34775 -0.44131,-4.49288 0,-4.76562 0.11996,-0.0741 0.23451,-0.10804 0.3457,-0.0977 z m 43.09766,2.92773 c 0.10931,-0.004 0.23761,0.0407 0.38672,0.13282 0.48643,0.30064 1.44254,3.49696 2.12305,7.10351 0.68051,3.60655 0.96767,6.82726 0.63867,7.15625 -0.64616,0.64616 -0.79487,0.23613 -2.50977,-6.95312 -1.19421,-5.0064 -1.40382,-7.41054 -0.63867,-7.43946 z m -46.72461,1.83204 c 0.36669,-0.0674 0.85072,0.0949 1.33203,0.57617 0.71815,0.71818 0.73378,1.2771 0.0508,1.69922 -0.55992,0.34605 -1.31746,0.14243 -1.68554,-0.45313 -0.59388,-0.96092 -0.30842,-1.70986 0.30273,-1.82226 z m -4.77344,0.87109 c 0.55,0 1,0.39315 1,0.87305 0,1.56281 9.56319,12.88563 20.90235,24.74804 6.10385,6.38551 11.09765,12.23239 11.09765,12.99414 0,1.96811 -0.46804,1.7823 -4.70703,-1.86523 -6.19165,-5.32774 -7.6457,-6.85339 -15.18554,-15.93359 -3.966,-4.77622 -7.52438,-8.82622 -7.90821,-9 -0.38382,-0.17377 -1.93672,-2.21922 -3.44922,-4.54493 -2.81795,-4.33304 -3.52513,-7.27148 -1.75,-7.27148 z m 13.54297,0.51367 c 0.53391,-0.24986 1.34236,2.05315 1.86719,6.23633 0.36226,2.8875 0.43475,5.25 0.16016,5.25 -1.23071,0 -2.57032,-4.23696 -2.57032,-8.13281 0,-2.13308 0.22263,-3.2036 0.54297,-3.35352 z m 44.45703,3.48633 c 0.55,0 1,0.87387 1,1.94141 0,1.06754 -0.45,2.21867 -1,2.55859 -0.56716,0.35052 -1,-0.48809 -1,-1.93945 0,-1.40746 0.45,-2.56055 1,-2.56055 z m -40.30664,0.19922 c 0.89855,0.14285 2.20506,3.36476 3.23047,8.1289 1.21248,5.63332 1.03132,8.02608 -0.42968,5.66211 -0.94632,-1.53116 -3.63925,-13.17716 -3.15821,-13.6582 0.10971,-0.10971 0.22906,-0.15322 0.35742,-0.13281 z m 45.30664,4.80078 c 0.55,0 1,0.45 1,1 0,0.55 -0.45,1 -1,1 -0.55,0 -1,-0.45 -1,-1 0,-0.55 0.45,-1 1,-1 z m -4.52734,1.32617 c 0.16455,0.004 0.37045,0.11655 0.61328,0.35938 0.59657,0.59657 0.92928,2.14829 0.74024,3.44922 -0.30261,2.08261 -0.43159,2.14604 -1.08399,0.5332 -0.9421,-2.32902 -0.98258,-4.35742 -0.26953,-4.3418 z m -33.9375,0.95117 c 0.81451,-0.16011 1.35354,1.65619 2.36719,7.14258 1.69548,9.17673 -0.004,8.67218 -2.48633,-0.73828 -0.75357,-2.85664 -0.9744,-5.5217 -0.49805,-5.99805 0.22657,-0.22656 0.42923,-0.3693 0.61719,-0.40625 z m -31.20703,4.19141 c 1.17637,0.0774 3.07981,2.57856 6.15039,8.03125 1.54861,2.75 4.80911,7.3625 7.24609,10.25 2.50726,2.97078 3.83435,5.25 3.05664,5.25 -1.64409,0 -6.73575,-5.26511 -13.11718,-13.5625 -4.50348,-5.85559 -5.61263,-8.73133 -3.79688,-9.85352 0.13968,-0.0863 0.29289,-0.12629 0.46094,-0.11523 z m 37.02734,3.46875 c 0.40514,0.0374 0.87347,0.49261 1.24805,1.46875 0.2965,0.77265 0.38805,2.91015 0.20508,4.75 -0.35007,3.52017 -0.86935,2.72746 -2.23438,-3.40625 -0.39579,-1.77849 0.10603,-2.87486 0.78125,-2.8125 z m 5.0918,5.49609 c 1.09191,0.17353 2.55273,3.97249 2.55273,7.13282 0,1.33919 -0.39385,2.43359 -0.87695,2.43359 -1.32877,0 -3.20014,-8.32134 -2.11523,-9.40625 0.13559,-0.13559 0.28346,-0.18495 0.43945,-0.16016 z m -2.94727,4.56641 c 0.825,0 1.5,0.45 1.5,1 0,0.55 -0.675,1 -1.5,1 -0.825,0 -1.5,-0.45 -1.5,-1 0,-0.55 0.675,-1 1.5,-1 z m 8.5,1 c 0.55,0 1,0.45 1,1 0,0.55 -0.45,1 -1,1 -0.55,0 -1,-0.45 -1,-1 0,-0.55 0.45,-1 1,-1 z m -41.81835,2.5 0.96289,3.34375 c 1.01553,3.52709 0.81057,5.77737 -0.41407,4.55273 -0.40105,-0.40104 -0.68827,-2.34166 -0.63867,-4.3125 z m 42.19726,1.89062 c 0.36444,0.0123 0.62109,0.40769 0.62109,1.05079 0,1.75653 -0.5998,2.01594 -1.45703,0.6289 -0.31644,-0.512 -0.11756,-1.21508 0.44141,-1.56054 0.13974,-0.0864 0.27305,-0.12324 0.39453,-0.11915 z m 3.62109,0.60938 c 0.55,0 1,0.45 1,1 0,0.55 -0.45,1 -1,1 -0.55,0 -1,-0.45 -1,-1 0,-0.55 0.45,-1 1,-1 z m -41,3 c 0.55,0 1,1.35 1,3 0,1.65 -0.45,3 -1,3 -0.55,0 -1,-1.35 -1,-3 0,-1.65 0.45,-3 1,-3 z m 4,4 c 0.55,0 1,0.45 1,1 0,0.55 -0.45,1 -1,1 -0.55,0 -1,-0.45 -1,-1 0,-0.55 0.45,-1 1,-1 z m -191.18359,3.56445 c 4.67257,0.0392 7.29473,0.6584 5.91602,2.03711 -0.34927,0.34927 -6.17871,1.4459 -12.95508,2.43555 -6.77637,0.98964 -13.66114,2.37263 -15.29883,3.07422 -3.16505,1.35594 -6.47752,3.80791 -6.47852,4.79492 -3.6e-4,0.32723 6.38651,0.4368 14.19336,0.24414 13.23908,-0.3267 21.82448,0.71352 21.79688,2.64062 -0.006,0.39043 -1.80559,1.46311 -4,2.38477 -4.63036,1.94476 -5.18281,4.30581 -1.24024,5.30273 3.91884,0.99093 37.24154,2.45011 42.41797,1.85743 5.21362,-0.59694 9.83203,-2.23723 9.83203,-3.49219 0,-0.50282 -2.1375,-1.85529 -4.75,-3.00586 l -4.75,-2.0918 3,-0.9375 c 1.69401,-0.5296 10.0741,-0.68279 19.25,-0.35156 15.7672,0.56916 16.25,0.5261 16.25,-1.41016 0,-3.38864 -5.36331,-5.26833 -23,-8.06445 -9.63197,-1.52705 -10.25239,-1.73374 -9.73242,-3.23242 1.40894,-4.06094 38.17045,2.29659 45.46875,7.86328 9.02796,6.88596 -1.62284,17.58231 -20.77734,20.86523 -4.65218,0.79735 -13.11868,1.91623 -18.81445,2.48633 -9.41982,0.94285 -44.64647,1.19523 -53.14454,0.38086 -21.43207,-2.05383 -35.25427,-5.18322 -44.04687,-9.96875 -4.48314,-2.44003 -7.95313,-6.66665 -7.95313,-9.6914 0,-1.78759 5.32746,-6.47251 8.94532,-7.86719 9.38544,-3.61807 29.59144,-6.34008 39.87109,-6.25391 z m -18.69141,21.47656 -2.625,0.0391 2.63477,1.43164 c 3.37843,1.83558 15.83126,5.25536 23.45117,6.43945 7.64494,1.18797 50.99575,0.63899 54.91406,-0.69531 1.65,-0.56188 4.9125,-1.59663 7.25,-2.29883 2.3375,-0.70219 4.25,-1.70185 4.25,-2.22266 0,-0.52081 -0.6469,-0.69987 -1.4375,-0.39648 -15.87762,6.09281 -63.56839,5.64337 -81.4375,-0.76758 -2.40665,-0.86344 -5.55665,-1.5513 -7,-1.5293 z m 117.97657,3.01172 c 0.54104,-0.002 0.89843,0.43388 0.89843,1.3086 0,2.08378 -10.58895,7.2634 -19.50976,9.54297 -4.39411,1.12284 -13.84024,2.69983 -20.99024,3.5039 -21.56871,2.42556 -53.46684,1.34852 -73.12304,-2.46875 -10.1359,-1.96841 -5.29233,-2.28402 7.55469,-0.49218 19.24808,2.68465 66.41528,1.55608 83.2832,-1.99219 7.62528,-1.60403 18.02243,-5.82825 19.89453,-8.08399 0.72789,-0.87692 1.45114,-1.31666 1.99219,-1.31836 z" />
  </g>
</svg>
