<?xml version="1.0" encoding="UTF-8" standalone="no"?>
<svg
   xmlns:dc="http://purl.org/dc/elements/1.1/"
   xmlns:cc="http://creativecommons.org/ns#"
   xmlns:rdf="http://www.w3.org/1999/02/22-rdf-syntax-ns#"
   xmlns:svg="http://www.w3.org/2000/svg"
   xmlns="http://www.w3.org/2000/svg"
   xmlns:sodipodi="http://sodipodi.sourceforge.net/DTD/sodipodi-0.dtd"
   xmlns:inkscape="http://www.inkscape.org/namespaces/inkscape"
   width="1.18628mm"
   height="4.4198852mm"
   viewBox="0 0 1.18628 4.4198852"
   version="1.1"
   id="svg8"
   inkscape:version="1.0.1 (3bc2e813f5, 2020-09-07)"
   sodipodi:docname="een.svg">
  <defs
     id="defs2" />
  <sodipodi:namedview
     id="base"
     pagecolor="#ffffff"
     bordercolor="#666666"
     borderopacity="1.0"
     inkscape:pageopacity="0.0"
     inkscape:pageshadow="2"
     inkscape:zoom="2.8"
     inkscape:cx="139.01645"
     inkscape:cy="42.883386"
     inkscape:document-units="mm"
     inkscape:current-layer="layer1"
     inkscape:document-rotation="0"
     showgrid="false"
     inkscape:window-width="1920"
     inkscape:window-height="1017"
     inkscape:window-x="-8"
     inkscape:window-y="-8"
     inkscape:window-maximized="1"
     fit-margin-top="0"
     fit-margin-left="0"
     fit-margin-right="0"
     fit-margin-bottom="0" />
  <metadata
     id="metadata5">
    <rdf:RDF>
      <cc:Work
         rdf:about="">
        <dc:format>image/svg+xml</dc:format>
        <dc:type
           rdf:resource="http://purl.org/dc/dcmitype/StillImage" />
        <dc:title></dc:title>
      </cc:Work>
    </rdf:RDF>
  </metadata>
  <g
     inkscape:label="Laag 1"
     inkscape:groupmode="layer"
     id="layer1"
     transform="translate(-2.820228,-4.2207176)">
    <path
       style="opacity:1;fill:#000000;stroke:#000205;stroke-width:0.365001;stroke-linecap:round;stroke-opacity:0.983936"
       id="path859"
       d="m 3.2502271,4.7322504 c 0.00518,0.5237358 0.00566,1.0475097 0.00591,1.5712675 0.00122,0.5322454 -0.0013,1.0644868 -0.00375,1.5967244 -3.175e-4,0.1473888 -7.409e-4,0.2947773 -0.00111,0.4421661 0,0 0.4144344,-0.2111647 0.4144344,-0.2111647 v 0 c -4.018e-4,-0.1470081 -7.987e-4,-0.2940161 -0.00112,-0.4410244 -0.00246,-0.5309627 -0.00496,-1.0619288 -0.00375,-1.5928991 2.479e-4,-0.5257662 7.673e-4,-1.0515481 0.00591,-1.5772924 0,0 -0.4165103,0.2122226 -0.4165103,0.2122226 z" />
  </g>
</svg>
