<?xml version="1.0" encoding="UTF-8" standalone="no"?>
<svg
   xmlns:dc="http://purl.org/dc/elements/1.1/"
   xmlns:cc="http://creativecommons.org/ns#"
   xmlns:rdf="http://www.w3.org/1999/02/22-rdf-syntax-ns#"
   xmlns:svg="http://www.w3.org/2000/svg"
   xmlns="http://www.w3.org/2000/svg"
   xmlns:sodipodi="http://sodipodi.sourceforge.net/DTD/sodipodi-0.dtd"
   xmlns:inkscape="http://www.inkscape.org/namespaces/inkscape"
   width="7.8451176mm"
   height="4.5104003mm"
   viewBox="0 0 7.8451176 4.5104003"
   version="1.1"
   id="svg8"
   inkscape:version="1.0.1 (3bc2e813f5, 2020-09-07)"
   sodipodi:docname="vijf-wit.svg">
  <defs
     id="defs2" />
  <sodipodi:namedview
     id="base"
     pagecolor="#ffffff"
     bordercolor="#666666"
     borderopacity="1.0"
     inkscape:pageopacity="0.0"
     inkscape:pageshadow="2"
     inkscape:zoom="2.8"
     inkscape:cx="148.22411"
     inkscape:cy="42.883386"
     inkscape:document-units="mm"
     inkscape:current-layer="layer1"
     inkscape:document-rotation="0"
     showgrid="false"
     inkscape:window-width="1920"
     inkscape:window-height="1017"
     inkscape:window-x="-8"
     inkscape:window-y="-8"
     inkscape:window-maximized="1"
     fit-margin-top="0"
     fit-margin-left="0"
     fit-margin-right="0"
     fit-margin-bottom="0" />
  <metadata
     id="metadata5">
    <rdf:RDF>
      <cc:Work
         rdf:about="">
        <dc:format>image/svg+xml</dc:format>
        <dc:type
           rdf:resource="http://purl.org/dc/dcmitype/StillImage" />
        <dc:title></dc:title>
      </cc:Work>
    </rdf:RDF>
  </metadata>
  <g
     inkscape:label="Laag 1"
     inkscape:groupmode="layer"
     id="layer1"
     transform="translate(-1.8014471,-4.2207176)">
    <path
       style="opacity:1;fill:#ffffff;stroke:#fffffb;stroke-width:0.365001;stroke-linecap:round;stroke-opacity:0.98393601;fill-opacity:1"
       id="path859"
       d="m 3.0045424,4.7322504 c 0.00518,0.5237358 0.00566,1.0475097 0.00591,1.5712675 0.00122,0.5322454 -0.0013,1.0644868 -0.00375,1.5967244 -3.175e-4,0.1473888 -7.409e-4,0.2947773 -0.00111,0.4421661 0,0 0.4144344,-0.2111647 0.4144344,-0.2111647 v 0 C 3.419625,7.9842356 3.4192281,7.8372276 3.4189106,7.6902193 3.41645,7.1592566 3.413947,6.6282905 3.4151562,6.0973202 3.4154041,5.571554 3.4159235,5.0457721 3.421067,4.5200278 c 0,0 -0.4165103,0.2122226 -0.4165103,0.2122226 z" />
    <path
       style="opacity:1;fill:#ffffff;stroke:#fffffb;stroke-width:0.365001;stroke-linecap:round;stroke-opacity:0.98393601;fill-opacity:1"
       id="path861"
       d="m 4.2338019,5.1437095 c 0.00904,0.6761657 0.00711,1.3524328 0.0045,2.0286379 -0.00235,0.378955 -0.00355,0.7579103 -0.00369,1.136872 0,0 0.4132186,-0.2105454 0.4132186,-0.2105454 v 0 c -1.435e-4,-0.3777088 -0.00132,-0.7554111 -0.00369,-1.1331133 -0.00262,-0.6777331 -0.0045,-1.3555265 0.0045,-2.033221 0,0 -0.4148365,0.2113698 -0.4148365,0.2113698 z" />
    <path
       style="opacity:1;fill:#ffffff;stroke:#fffffb;stroke-width:0.365001;stroke-linecap:round;stroke-opacity:0.98393601;fill-opacity:1"
       id="path863"
       d="m 5.5558816,4.9212386 c 0.00381,0.4152796 0.00374,0.8305879 0.00361,1.2458821 -0.016785,0.404204 0.012824,0.8057997 0.042981,1.2084026 0.026737,0.3527086 0.039591,0.7062343 0.046131,1.0598296 0,0 0.4138083,-0.2119958 0.4138083,-0.2119958 v 0 C 6.0533655,7.8696795 6.0378106,7.5161427 6.0113849,7.1633029 5.9812618,6.7620387 5.9570519,6.3613016 5.9687827,5.9585772 5.9686581,5.5420566 5.9685962,5.1255223 5.9723943,4.709016 c 0,0 -0.4165106,0.2122226 -0.4165106,0.2122226 z" />
    <path
       style="opacity:1;fill:#ffffff;stroke:#fffffb;stroke-width:0.365001;stroke-linecap:round;stroke-opacity:0.98393601;fill-opacity:1"
       id="path865"
       d="m 6.7845833,4.9323995 c -0.00942,0.3716454 0.01193,0.7407481 0.045518,1.1105613 0.031281,0.3093569 0.041304,0.6202076 0.047075,0.9309076 0.0036,0.2472491 0.00289,0.4945282 0.00307,0.7417948 -1.548e-4,0.1640901 -4.63e-5,0.082661 -3.175e-4,0.2442866 0,0 0.415058,-0.2114336 0.415058,-0.2114336 v 0 c 2.48e-5,-0.1615374 -1.01e-5,-0.080137 1.066e-4,-0.2442009 3.969e-4,-0.2474155 5.556e-4,-0.494861 -0.0044,-0.7422377 -0.00732,-0.3114106 -0.01747,-0.6230882 -0.050086,-0.9330653 -0.034701,-0.368994 -0.056005,-0.7376636 -0.040065,-1.1085512 0,0 -0.4159522,0.2119384 -0.4159522,0.2119384 z" />
    <path
       style="opacity:1;fill:#ffffff;stroke:#fffffb;stroke-width:0.365001;stroke-linecap:round;stroke-opacity:0.98393601;fill-opacity:1"
       id="path873"
       d="M 1.9116116,7.5830969 C 2.5195411,7.4909515 3.132733,7.4620492 3.7406188,7.368016 4.8244971,7.2193715 5.9050086,7.0471455 6.9890385,6.8993236 7.5512702,6.8245531 8.1162976,6.7731785 8.683083,6.752637 c 0,0 0.3736139,-0.2736053 0.3736139,-0.2736053 v 0 C 8.4841783,6.5014789 7.9136289,6.555809 7.3458291,6.6325482 6.2642392,6.7835954 5.1858753,6.9577873 4.1025799,7.0963628 3.4982806,7.1917993 2.889695,7.2245148 2.2832007,7.3017501 c 0,0 -0.3715891,0.2813468 -0.3715891,0.2813468 z" />
  </g>
</svg>
